<?xml version="1.0" encoding="UTF-8" standalone="no"?>
<svg
   xmlns:dc="http://purl.org/dc/elements/1.1/"
   xmlns:cc="http://creativecommons.org/ns#"
   xmlns:rdf="http://www.w3.org/1999/02/22-rdf-syntax-ns#"
   xmlns:svg="http://www.w3.org/2000/svg"
   xmlns="http://www.w3.org/2000/svg"
   xmlns:sodipodi="http://sodipodi.sourceforge.net/DTD/sodipodi-0.dtd"
   xmlns:inkscape="http://www.inkscape.org/namespaces/inkscape"
   id="svg1025"
   version="1.1"
   viewBox="0 0 270.93333 270.93334"
   height="1024"
   width="1024"
   sodipodi:docname="ISTEs.svg"
   inkscape:version="0.92.4 5da689c313, 2019-01-14">
  <sodipodi:namedview
     pagecolor="#ffffff"
     bordercolor="#666666"
     borderopacity="1"
     objecttolerance="10"
     gridtolerance="10"
     guidetolerance="10"
     inkscape:pageopacity="0"
     inkscape:pageshadow="2"
     inkscape:window-width="1855"
     inkscape:window-height="1052"
     id="namedview7"
     showgrid="false"
     inkscape:pagecheckerboard="true"
     inkscape:snap-page="true"
     inkscape:zoom="0.921875"
     inkscape:cx="945.89831"
     inkscape:cy="642.16949"
     inkscape:window-x="65"
     inkscape:window-y="0"
     inkscape:window-maximized="1"
     inkscape:current-layer="svg1025"
     borderlayer="true" />
  <defs
     id="defs1019" />
  <metadata
     id="metadata1022">
    <rdf:RDF>
      <cc:Work
         rdf:about="">
        <dc:format>image/svg+xml</dc:format>
        <dc:type
           rdf:resource="http://purl.org/dc/dcmitype/StillImage" />
        <dc:title></dc:title>
      </cc:Work>
    </rdf:RDF>
  </metadata>
  <g
     transform="matrix(1.1003235,0,0,1.100323,-13.590433,-42.282241)"
     id="layer1">
    <path
       style="opacity:1;vector-effect:none;fill:#ffffff;fill-opacity:1;stroke:none;stroke-width:10.22656631;stroke-linecap:butt;stroke-linejoin:miter;stroke-miterlimit:4;stroke-dasharray:none;stroke-dashoffset:0;stroke-opacity:1"
       d="M 135.46671,38.417956 A 123.11534,123.11534 0 0 0 12.351354,161.53324 123.11534,123.11534 0 0 0 135.46671,284.64868 123.11534,123.11534 0 0 0 258.58198,161.53324 123.11534,123.11534 0 0 0 135.46671,38.417956 Z m 0,9.036927 A 114.07849,114.07849 0 0 1 249.54558,161.53324 114.07849,114.07849 0 0 1 135.46671,275.61209 114.07849,114.07849 0 0 1 21.388335,161.53324 114.07849,114.07849 0 0 1 135.46671,47.454883 Z m 1.69277,4.549612 -12.5947,0.534097 0.0695,1.696251 5.285,-0.224425 0.55846,13.193007 2.0242,-0.08699 -0.55846,-13.193006 5.28499,-0.224424 z m 3.96278,0.219208 -1.36569,14.838442 9.56112,0.878571 0.15657,-1.689279 -7.55398,-0.694168 0.4941,-5.377019 7.06615,0.650656 0.15657,-1.689296 -7.06649,-0.650657 0.40362,-4.392862 7.37443,0.678504 0.15658,-1.689296 z m 19.31954,2.748448 c -1.3779,-0.0174 -2.61033,0.320105 -3.7001,1.036888 -1.58317,1.035146 -2.65537,2.718524 -3.21539,5.047519 -0.55847,2.32255 -0.36883,4.308122 0.56889,5.957045 0.93947,1.642335 2.50593,2.727749 4.69904,3.255248 0.85422,0.205279 1.69104,0.283574 2.50993,0.233129 0.82638,-0.0521 1.6371,-0.222698 2.43547,-0.523668 l 0.49237,-2.047502 c -0.80726,0.455804 -1.6232,0.7446 -2.44695,0.86813 -0.81594,0.121855 -1.64582,0.08698 -2.48715,-0.121696 -1.65625,-0.398416 -2.80291,-1.207391 -3.44018,-2.428168 -0.63499,-1.226527 -0.72372,-2.795245 -0.26618,-4.70375 0.46103,-1.914932 1.25261,-3.271411 2.37492,-4.069089 1.12388,-0.803754 2.51411,-1.007316 4.17017,-0.608915 0.8403,0.201823 1.59709,0.544544 2.26793,1.028193 0.67677,0.485388 1.27177,1.113444 1.78428,1.886926 l 0.49758,-2.066819 v -5.1e-4 c -0.56368,-0.621102 -1.20218,-1.137798 -1.91686,-1.548384 -0.70807,-0.415801 -1.49444,-0.728952 -2.36153,-0.937712 -0.68546,-0.173976 -1.34134,-0.252271 -1.96713,-0.26444 z m -50.56899,0.49408 c -0.65936,-0.01435 -1.40223,0.08692 -2.22739,0.297505 l -4.40765,1.132565 3.70827,14.432404 1.95286,-0.501051 -1.56751,-6.100071 2.12649,-0.546267 c 0.77418,-0.198331 1.42311,-0.198331 1.94886,0.0033 0.53237,0.20007 1.16042,0.721982 1.88589,1.565768 l 2.79768,3.227736 2.09779,-0.539309 -2.99498,-3.434778 c -0.60891,-0.709813 -1.17084,-1.245664 -1.68929,-1.605785 -0.51147,-0.363614 -0.99686,-0.561946 -1.45094,-0.594993 0.74635,-0.438416 1.25087,-1.012531 1.5153,-1.718866 0.27142,-0.708073 0.29054,-1.517058 0.0523,-2.426254 -0.35839,-1.391792 -1.03166,-2.328468 -2.02071,-2.809516 -0.49409,-0.240071 -1.07168,-0.367076 -1.73104,-0.382738 z m -0.53585,1.745135 c 0.38276,0.01738 0.72026,0.10431 1.01428,0.257487 0.59326,0.30098 0.99687,0.873357 1.21434,1.717128 0.21747,0.84377 0.13919,1.548367 -0.23139,2.110136 -0.36534,0.554976 -1.01948,0.953376 -1.96034,1.195199 l -2.45565,0.629796 -1.31525,-5.123201 2.45497,-0.631533 c 0.47146,-0.121853 0.89596,-0.173975 1.2787,-0.156623 z m 62.8474,1.125613 -5.72045,13.759298 1.86152,0.774192 2.72427,-6.552241 6.76447,2.811961 -2.72374,6.552742 1.86135,0.774183 5.7203,-13.759461 -1.86136,-0.774182 -2.345,5.640078 -6.76449,-2.812124 2.34449,-5.640088 z m -77.878962,2.096738 c -0.904664,0.01435 -1.837513,0.227919 -2.794721,0.647196 -1.920678,0.838554 -3.176077,2.154141 -3.766373,3.944173 -0.586293,1.781322 -0.40884,3.750883 0.534102,5.909397 0.942941,2.158492 2.267583,3.62717 3.973401,4.40677 1.711911,0.777658 3.527684,0.746342 5.448361,-0.08698 1.914591,-0.836812 3.165122,-2.145449 3.752102,-3.926772 0.58456,-1.787423 0.40537,-3.757165 -0.5341,-5.909396 -0.942941,-2.157984 -2.267231,-3.626669 -3.973052,-4.406259 -0.85421,-0.393168 -1.73453,-0.582806 -2.639892,-0.570637 z m -0.173976,1.734529 c 0.640234,0.0174 1.263058,0.191377 1.872676,0.520191 1.22303,0.655886 2.212251,1.847081 2.966251,3.572724 0.75157,1.718886 0.95165,3.251062 0.60196,4.594674 -0.34448,1.341342 -1.18651,2.304638 -2.527501,2.890767 -1.341343,0.5863 -2.626665,0.55323 -3.856323,-0.104309 -1.223039,-0.655897 -2.210866,-1.843966 -2.962087,-3.563343 -0.75331,-1.725828 -0.95686,-3.260445 -0.607171,-4.60406 0.356648,-1.346559 1.203902,-2.312294 2.545419,-2.898419 0.671541,-0.294011 1.325685,-0.429709 1.965567,-0.412323 z m 94.281108,3.491498 -7.87809,12.648109 1.65971,1.035149 6.59086,-10.581294 -0.98297,14.074352 2.30431,1.435277 7.87808,-12.648103 -1.65973,-1.03514 -6.59083,10.581283 0.98294,-14.074344 z m -107.099539,0.718517 -7.253689,4.550989 7.919316,12.623057 1.708429,-1.071682 -3.781856,-6.028037 5.004895,-3.140404 -0.901185,-1.437022 -5.004899,3.13988 -2.334215,-3.720093 5.546653,-3.479666 z m 54.154249,5.430793 a 40.466515,40.466515 0 0 0 -40.46681,40.466456 40.466515,40.466515 0 0 0 40.46681,40.46627 40.466515,40.466515 0 0 0 40.46627,-40.46627 40.466515,40.466515 0 0 0 -40.46627,-40.466456 z m 17.15039,1.376124 c 4.78534,2.14806 9.19072,5.14007 12.90056,8.849903 8.03221,8.032227 12.70883,19.321429 12.70883,30.680579 5.2e-4,11.35965 -4.67643,22.65008 -12.70883,30.68265 -1.12039,1.12039 -2.30603,2.17277 -3.54438,3.15904 5.05813,-2.00036 10.48144,-3.0757 15.92179,-3.0757 11.3593,0 22.64887,4.67659 30.68109,12.70882 8.03221,8.03223 12.70812,19.32127 12.70831,30.68057 0,0.50277 -0.0105,1.0073 -0.0348,1.51008 a 89.966429,89.876336 0 0 0 4.1799,-27.00152 89.966429,89.876336 0 0 0 -72.81596,-88.19407 z m -36.88327,0.62108 a 89.966429,89.876336 0 0 0 -70.233657,87.572822 89.966429,89.876336 0 0 0 4.270552,27.02414 c -0.03479,-0.6872 -0.05219,-1.37613 -0.05219,-2.06385 0,-11.35932 4.676085,-22.64886 12.70831,-30.68109 8.032224,-8.03222 19.321773,-12.70814 30.681087,-12.7083 4.258366,0 8.506828,0.65762 12.577828,1.90204 -0.52192,-0.47145 -1.03167,-0.95685 -1.52923,-1.45442 -8.032402,-8.03274 -12.70936,-19.32298 -12.709011,-30.68265 3.48e-4,-11.35932 4.676609,-22.648348 12.709011,-30.680555 3.36501,-3.365198 7.3031,-6.138694 11.57712,-8.228638 z m 86.75148,1.301328 -9.24361,11.68779 1.58143,1.250863 9.24379,-11.687599 z m -137.621958,2.65398 -1.572728,1.489234 1.238698,7.269522 -7.214547,-1.605789 -1.572728,1.49097 9.194202,2.038624 4.881548,5.150336 1.470083,-1.39353 -4.88207,-5.150345 z m 143.416348,4.178515 c -0.12177,-9.75e-4 -0.23486,0 -0.35317,0.0073 -1.89092,0.06956 -3.67468,0.96903 -5.35128,2.679548 -1.67189,1.706686 -2.52907,3.506981 -2.57116,5.403646 -0.0348,1.891973 0.74983,3.627543 2.36031,5.206369 0.62806,0.614123 1.3048,1.111683 2.03358,1.489203 0.73418,0.38276 1.51881,0.65068 2.3584,0.80204 l 1.47356,-1.50489 c -0.92729,-0.0173 -1.77575,-0.19311 -2.54611,-0.51148 -0.76549,-0.311409 -1.45617,-0.77071 -2.07447,-1.376135 -1.21608,-1.191745 -1.78497,-2.476019 -1.70495,-3.850579 0.087,-1.379618 0.8142,-2.770209 2.18877,-4.171909 1.37787,-1.405708 2.75436,-2.163547 4.1272,-2.271587 1.37788,-0.104303 2.67416,0.426232 3.89059,1.619711 0.61761,0.605425 1.09081,1.287411 1.4179,2.046973 0.33227,0.763748 0.52016,1.609268 0.56193,2.534982 l 1.48747,-1.518805 c -0.15657,-0.821141 -0.44711,-1.591855 -0.84898,-2.312993 -0.39319,-0.720234 -0.90816,-1.393529 -1.5449,-2.017559 -1.5101,-1.480535 -3.14598,-2.231055 -4.90624,-2.252972 z m -153.810449,5.847125 -7.937757,9.792501 1.318725,1.0682 3.331262,-4.109114 10.25736,8.314947 1.275231,-1.57447 -10.258053,-8.314932 3.331263,-4.109281 z m 167.720589,7.079019 -15.32508,4.422592 1.27872,1.698003 3.87023,-1.216093 4.04195,5.365203 -2.23662,3.38415 1.26132,1.67365 8.48474,-13.502343 z m -0.9012,2.103512 -4.2709,6.654513 -3.29715,-4.376483 z m -176.675911,3.480543 -4.905208,8.04421 12.722227,7.75788 4.998807,-8.19731 -1.449206,-0.8838 -3.948698,6.47619 -4.610323,-2.81106 3.694349,-6.05885 -1.449208,-0.88378 -3.694347,6.05882 -3.766374,-2.29662 3.855795,-6.32311 z m 76.309021,2.34031 c 1.27697,0 2.53358,0.15662 3.77054,0.47841 1.23695,0.31839 2.30446,0.77767 3.20218,1.37614 l -1.22653,3.02229 c -0.91684,-0.53931 -1.87526,-0.94815 -2.87267,-1.22651 -0.99686,-0.2801 -1.96503,-0.41928 -2.90257,-0.41928 -1.5362,0 -2.68357,0.25922 -3.44174,0.77767 -0.73939,0.51843 -1.10649,1.20736 -1.10649,2.0649 0,0.59847 0.20878,1.08733 0.62806,1.46661 0.43842,0.37925 0.98817,0.67849 1.6458,0.89771 0.65937,0.2192 1.55533,0.46797 2.69347,0.74807 1.55532,0.35839 2.83265,0.73765 3.83004,1.1378 0.99687,0.37927 1.84551,0.9673 2.54386,1.76585 0.71852,0.79853 1.0769,1.87526 1.0769,3.23192 0,1.15691 -0.31837,2.20442 -0.95686,3.14198 -0.61935,0.93771 -1.56577,1.68581 -2.84291,2.24428 -1.27698,0.55846 -2.83301,0.83854 -4.66843,0.83854 -1.61623,0 -3.18182,-0.22965 -4.69802,-0.68894 -1.49617,-0.45929 -2.68355,-1.06646 -3.56143,-1.82552 l 1.34657,-3.02209 c 0.8577,0.67849 1.90503,1.23697 3.14198,1.67537 1.25609,0.41927 2.51359,0.62804 3.77055,0.62804 1.55533,0 2.71313,-0.24878 3.47131,-0.74808 0.7794,-0.4993 1.16737,-1.15694 1.16737,-1.97496 0,-0.59848 -0.21921,-1.08736 -0.65937,-1.46661 -0.41927,-0.3984 -0.95686,-0.70808 -1.61622,-0.92728 -0.65937,-0.21921 -1.55533,-0.46798 -2.69277,-0.7481 -1.59534,-0.37925 -2.8932,-0.75852 -3.89078,-1.13605 -0.97772,-0.37926 -1.82516,-0.9673 -2.54332,-1.76584 -0.69938,-0.81768 -1.04733,-1.91494 -1.04733,-3.2916 0,-1.15692 0.30794,-2.20478 0.92728,-3.14233 0.63849,-0.95686 1.58666,-1.71538 2.84292,-2.27419 1.27697,-0.55844 2.83283,-0.83855 4.66825,-0.83855 z m -16.64883,0.29923 h 3.89023 v 20.94721 h -3.89023 z m 25.36112,0 h 17.77549 v 3.29161 h -6.94246 v 17.6556 h -3.89023 v -17.6556 h -6.9428 z m 20.69478,0 h 15.29183 v 3.26186 h -11.40159 v 5.44624 h 10.1147 v 3.20219 h -10.1147 v 5.77526 h 11.82087 v 3.26166 h -15.71111 z m 78.76762,1.76479 -13.0011,7.28101 4.52993,8.0898 1.48052,-0.82809 -3.54541,-6.3313 11.5211,-6.4515 z m -191.867881,8.57085 -0.871612,1.81822 13.43848,6.4381 0.871612,-1.81804 z m -1.857873,6.487 c -0.675022,0.49581 -1.254356,1.07863 -1.736265,1.74827 -0.487129,0.6611 -0.878571,1.41267 -1.174327,2.25297 -0.74809,2.12785 -0.685461,4.03325 0.187891,5.71679 0.868132,1.68061 2.432512,2.91964 4.691917,3.71488 2.253318,0.79333 4.248282,0.80723 5.984547,0.0348 1.729306,-0.76721 2.969744,-2.21363 3.718529,-4.34133 0.292276,-0.82813 0.454073,-1.65277 0.488868,-2.47306 0.03479,-0.82638 -0.05219,-1.65276 -0.271402,-2.47634 l -1.986264,-0.69938 c 0.370565,0.85074 0.575855,1.69104 0.61413,2.52262 0.03479,0.82465 -0.08698,1.64754 -0.368825,2.46261 -0.565417,1.60753 -1.487482,2.66441 -2.767759,3.17348 -1.285671,0.50627 -2.854401,0.43493 -4.705835,-0.21748 -1.857874,-0.65414 -3.126321,-1.57969 -3.804995,-2.77819 -0.68546,-1.20043 -0.744612,-2.60423 -0.179195,-4.21089 0.287059,-0.81592 0.704596,-1.53271 1.254356,-2.15067 0.5515,-0.62457 1.23696,-1.1517 2.059161,-1.58141 z m 202.782344,3.69347 -14.18118,4.57728 2.94974,9.13729 1.61448,-0.52191 -2.33057,-7.21891 5.1387,-1.65796 2.17989,6.75316 1.61447,-0.52192 -2.18007,-6.75317 4.1987,-1.35525 2.2749,7.04769 1.61447,-0.52018 z M 34.308058,136.54912 c -1.438769,0.0143 -2.70652,0.36185 -3.80343,1.04035 -1.602303,0.98469 -2.587522,2.50472 -2.954955,4.56144 -0.368652,2.06333 0.0348,3.83752 1.188246,5.32258 1.155191,1.47703 2.892674,2.42275 5.211403,2.83718 2.318906,0.41405 4.27577,0.12168 5.871463,-0.85596 1.597086,-0.99166 2.579521,-2.51969 2.948171,-4.58301 0.367088,-2.05673 -0.0174,-3.82361 -1.181284,-5.30084 -1.16215,-1.47878 -2.898763,-2.4245 -5.210884,-2.83786 -0.725474,-0.1217 -1.414413,-0.18962 -2.068034,-0.18267 z m 208.159542,1.62838 -14.70832,2.3892 0.66457,4.08805 c 0.46105,2.83736 1.39529,4.82951 2.80083,5.97619 1.40571,1.14649 3.37719,1.51358 5.91233,1.103 2.52211,-0.41057 4.26603,-1.37786 5.23159,-2.90241 0.97253,-1.52574 1.22654,-3.7147 0.76376,-6.56511 z m -208.41859,0.48193 c 0.607171,-0.0143 1.257837,0.0348 1.952863,0.17398 1.847087,0.33054 3.232096,1.01252 4.15538,2.05045 0.923802,1.02992 1.257835,2.26636 1.000353,3.70741 -0.257483,1.44049 -1.000353,2.49111 -2.226352,3.15067 -1.22478,0.65238 -2.760973,0.81419 -4.60806,0.48364 -1.853699,-0.33055 -3.242535,-1.01602 -4.165818,-2.05255 -0.922065,-1.04385 -1.254355,-2.28532 -0.996874,-3.72636 0.257483,-1.44051 0.998613,-2.4847 2.222175,-3.13119 0.765489,-0.40884 1.654498,-0.62458 2.665637,-0.64893 z m 207.10664,1.77295 0.39145,2.40365 c 0.33056,2.02941 0.10432,3.58838 -0.65588,4.67696 -0.76027,1.0943 -2.12389,1.8013 -4.09432,2.12142 -1.98331,0.32186 -3.51185,0.087 -4.5851,-0.71155 -1.07167,-0.78983 -1.77262,-2.19937 -2.10229,-4.22897 l -0.38971,-2.40397 z M 93.039041,146.4032 A 40.466515,40.466515 0 0 0 52.572763,186.87017 40.466515,40.466515 0 0 0 93.039041,227.33644 40.466515,40.466515 0 0 0 133.50585,186.87017 40.466515,40.466515 0 0 0 93.039041,146.4032 Z m 84.857419,0 a 40.466515,40.466515 0 0 0 -40.46645,40.46697 40.466515,40.466515 0 0 0 40.46645,40.46627 40.466515,40.466515 0 0 0 40.46681,-40.46627 40.466515,40.466515 0 0 0 -40.46681,-40.46697 z m -1.76896,6.45985 h 3.53776 l 1.24914,5.67869 a 28.497079,28.497079 0 0 1 3.81839,0.69937 l 3.13225,-4.93199 3.32377,1.20911 -0.77244,5.79161 a 28.497079,28.497079 0 0 1 3.37336,1.91947 l 4.6091,-3.54733 2.70981,2.27382 -2.69119,5.15085 a 28.497079,28.497079 0 0 1 2.47427,2.99255 l 5.56926,-1.7653 1.7688,3.0635 -4.31369,3.94104 a 28.497079,28.497079 0 0 1 1.34828,3.63902 l 5.81336,0.24531 0.61415,3.48366 -5.36886,2.21435 a 28.497079,28.497079 0 0 1 0.0695,1.94939 28.497079,28.497079 0 0 1 -0.10441,1.93738 l 5.39702,2.22564 -0.61412,3.48384 -5.82414,0.2453 a 28.497079,28.497079 0 0 1 -1.32569,3.64861 l 4.3024,3.93042 -1.76864,3.06334 -5.56422,-1.76375 a 28.497079,28.497079 0 0 1 -2.49237,2.96731 l 2.7041,5.17555 -2.70983,2.27352 -4.6204,-3.55621 a 28.497079,28.497079 0 0 1 -3.35945,1.94503 l 0.76895,5.77421 -3.32377,1.21088 -3.12823,-4.9268 a 28.497079,28.497079 0 0 1 -3.81665,0.66981 l -1.2561,5.70339 h -3.53899 l -1.24914,-5.67817 a 28.497079,28.497079 0 0 1 -3.81874,-0.69937 l -3.13172,4.932 -3.32446,-1.21086 0.7707,-5.79127 a 28.497079,28.497079 0 0 1 -3.37406,-1.91963 l -4.60962,3.54784 -2.70931,-2.27348 2.69069,-5.15139 a 28.497079,28.497079 0 0 1 -2.47444,-2.99236 l -5.5691,1.76462 -1.76827,-3.06333 4.31351,-3.94105 a 28.497079,28.497079 0 0 1 -1.3483,-3.6385 l -5.81369,-0.24531 -0.61413,-3.48366 5.36885,-2.21452 a 28.497079,28.497079 0 0 1 -0.0695,-1.94867 28.497079,28.497079 0 0 1 0.10442,-1.93738 l -5.39704,-2.22619 0.61415,-3.48384 5.8236,-0.2453 a 28.497079,28.497079 0 0 1 1.32569,-3.64858 l -4.30186,-3.9308 1.76827,-3.06351 5.56457,1.76377 a 28.497079,28.497079 0 0 1 2.492,-2.9668 l -2.70372,-5.17486 2.70931,-2.27403 4.62041,3.55604 a 28.497079,28.497079 0 0 1 3.361,-1.94556 l -0.76896,-5.77437 3.32448,-1.20912 3.12823,4.92678 a 28.497079,28.497079 0 0 1 3.81613,-0.66982 z m -25.36773,0.17398 c -5.05796,1.99998 -10.48093,3.07567 -15.92127,3.07567 -4.25855,0 -8.50737,-0.65763 -12.57836,-1.90241 0.52193,0.47147 1.03167,0.95686 1.52923,1.45442 5.93218,5.93202 10.03121,13.64117 11.77043,21.84233 1.80149,-8.00248 5.85162,-15.50668 11.65541,-21.31048 1.12039,-1.12039 2.30569,-2.17294 3.54386,-3.15904 z m -113.712486,0.802 c -1.210862,-0.0347 -2.183378,0.30794 -2.91842,1.0108 -0.741131,0.69415 -1.273493,1.79072 -1.593606,3.28742 l -0.27662,1.21087 c -0.231385,1.09952 -0.518441,1.84464 -0.861172,2.23609 -0.347949,0.38446 -0.852474,0.56889 -1.510099,0.55324 -0.784624,-0.0174 -1.383095,-0.32882 -1.795591,-0.93077 -0.412318,-0.60892 -0.605431,-1.46139 -0.579334,-2.55933 0.01387,-0.63153 0.12179,-1.28568 0.314894,-1.95947 0.194851,-0.67504 0.485389,-1.39007 0.868134,-2.14599 l -1.965721,-0.0522 c -0.270182,0.7533 -0.477038,1.48922 -0.62022,2.21173 -0.142651,0.72199 -0.223206,1.43182 -0.239561,2.13067 -0.03828,1.63014 0.311588,2.91928 1.048368,3.86814 0.736783,0.94295 1.763738,1.42834 3.080899,1.45965 1.137792,0.0173 2.033411,-0.2888 2.687729,-0.94644 0.654145,-0.6576 1.148231,-1.73276 1.482263,-3.22981 l 0.26792,-1.22305 c 0.229647,-1.01949 0.556718,-1.74758 0.979476,-2.18354 0.422758,-0.44365 1.000353,-0.6559 1.731046,-0.63849 0.838556,0.0174 1.477042,0.3462 1.914239,0.98294 0.438417,0.63675 0.643707,1.52926 0.615871,2.67992 -0.0174,0.75852 -0.156576,1.52749 -0.40362,2.30689 -0.250524,0.77941 -0.61587,1.57274 -1.0943,2.38049 l 2.075687,0.0522 c 0.332293,-0.84378 0.588036,-1.65971 0.765489,-2.44818 0.177455,-0.79506 0.27488,-1.5449 0.292278,-2.24948 0.03479,-1.86917 -0.295756,-3.29473 -1.019491,-4.27665 -0.721994,-0.98816 -1.805333,-1.49965 -3.248798,-1.53269 z m 198.483436,2.09674 c -1.94295,-8.8e-4 -3.41077,0.4767 -4.4026,1.43529 -0.99167,0.96382 -1.48749,2.38745 -1.48923,4.27055 -8.8e-4,1.87632 0.49409,3.29439 1.48401,4.25298 0.98991,0.96556 2.45756,1.44748 4.40051,1.44921 l 9.30205,0.007 8.9e-4,-2.02576 -9.05241,-0.007 c -1.59709,-8.7e-4 -2.74776,-0.29053 -3.45287,-0.86986 -0.69939,-0.57935 -1.04734,-1.51532 -1.0456,-2.80533 8.8e-4,-1.29786 0.34969,-2.23576 1.04907,-2.81422 0.70634,-0.57933 1.85719,-0.86814 3.45391,-0.8664 l 9.05259,0.007 8.6e-4,-2.02578 z m -140.201652,0.8577 c -0.688933,16.06166 1.31177,11.94351 2.636411,19.4286 -9.7e-4,5.60196 -0.862921,8.76622 -4.485934,13.0387 4.486804,5.29454 11.072435,8.35162 18.012275,8.36188 6.13693,-0.0114 12.03034,-2.40362 16.43519,-6.67678 -2.50957,17.31081 -17.33812,30.16073 -34.829861,30.18265 -17.826987,-0.0173 -32.828975,-13.35516 -34.94485,-31.05618 4.465923,4.80431 10.725696,7.5392 17.285054,7.55031 6.950452,-8.8e-4 13.548605,-3.05932 18.042192,-8.36188 -3.633803,-4.26813 -5.633814,-9.68865 -5.643729,-15.29428 9.74e-4,-5.60183 3.870059,-12.90057 7.493252,-17.17302 z m 82.567392,8.51275 a 21.571681,21.571681 0 0 0 -21.5716,21.57213 21.571681,21.571681 0 0 0 21.5716,21.57161 21.571681,21.571681 0 0 0 21.57197,-21.57161 21.571681,21.571681 0 0 0 -21.57197,-21.57213 z m 0,4.67955 a 16.892355,16.892355 0 0 1 16.89242,16.89258 16.892355,16.892355 0 0 1 -16.89242,16.89205 16.892355,16.892355 0 0 1 -16.89205,-16.89205 16.892355,16.892355 0 0 1 16.89205,-16.89258 z m 57.47385,1.3083 c -1.62144,-0.007 -3.02018,0.38968 -4.19591,1.18999 -1.56056,1.06992 -2.51619,2.71833 -2.86449,4.94696 -0.13918,0.86813 -0.13918,1.70842 -0.0348,2.52054 0.12179,0.81941 0.35316,1.61448 0.7185,2.38518 l 2.08092,0.32534 c -0.5202,-0.76897 -0.87509,-1.55708 -1.06472,-2.36866 -0.19138,-0.80376 -0.21921,-1.63364 -0.087,-2.48836 0.26271,-1.68233 0.97775,-2.89127 2.14286,-3.62511 1.17258,-0.73243 2.72756,-0.94816 4.66685,-0.6437 1.94592,0.30446 3.36173,0.98296 4.24724,2.03827 0.89251,1.05604 1.2074,2.42469 0.9447,4.10755 -0.13924,0.85422 -0.41408,1.63536 -0.84204,2.34343 -0.42799,0.71503 -1.00732,1.357 -1.73626,1.93077 l 2.10038,0.32882 c 0.57413,-0.61066 1.03689,-1.28916 1.38832,-2.0357 0.35837,-0.73937 0.60543,-1.54836 0.74288,-2.42972 0.34794,-2.22843 -0.0522,-4.0903 -1.22827,-5.58613 -1.16041,-1.49445 -2.92398,-2.42713 -5.29074,-2.79718 -0.58976,-0.087 -1.15519,-0.13924 -1.69624,-0.13924 z m -193.666079,2.97964 -14.621591,2.87371 0.377349,1.91948 12.231795,-2.40398 -10.957954,8.88695 0.523663,2.66407 14.621681,-2.87387 -0.377526,-1.91929 -12.232141,2.40398 10.958129,-8.88749 z m 185.893959,9.16812 -0.6298,2.03045 3.24828,2.42973 -1.99132,6.41497 -4.05326,0.15662 -0.62107,2.00174 15.91517,-1.00557 0.67676,-2.18304 z m -183.222232,4.03152 -12.064779,10.42817 0.781145,2.14807 15.94841,0.25575 -0.725473,-1.99809 -4.056735,0.0348 -2.29455,-6.31267 3.129105,-2.58143 z m 187.261392,1.5066 6.27177,4.81023 -7.89617,0.42274 z m -191.035418,4.20793 1.871616,5.1498 -7.903833,-0.0348 z m 94.844078,2.52836 c -1.80151,8.00266 -5.8525,15.50722 -11.65594,21.31119 -8.03223,8.03256 -19.32091,12.70812 -30.680569,12.7083 -8.061104,-1.8e-4 -16.08498,-2.35718 -22.93644,-6.59503 a 89.966429,89.876336 0 0 0 65.295039,28.11983 89.966429,89.876336 0 0 0 63.91663,-26.72872 c -6.52107,3.69642 -13.9891,5.73575 -21.48827,5.73575 -11.35966,0 -22.64833,-4.67607 -30.68055,-12.70883 -5.93166,-5.932 -10.03051,-13.64132 -11.7699,-21.84249 z m 86.37778,4.18008 -0.85073,1.83875 11.98283,5.54768 -2.22269,4.80032 1.53968,0.71328 5.2963,-11.43899 -1.53967,-0.71328 -2.22201,4.80046 z m -171.651003,2.28794 -13.386637,6.54561 0.88553,1.81162 13.386635,-6.54616 z m 167.467433,5.97829 -1.016,1.74165 12.87219,7.507 1.01601,-1.74166 z m -167.0619,1.28915 c -1.388314,-0.0144 -2.892149,0.49584 -4.513071,1.53619 -2.149975,1.38137 -3.36397,2.9626 -3.64198,4.74636 -0.283578,1.78725 0.354908,3.89618 1.914762,6.32626 l 2.238008,3.4852 12.539208,-8.05082 -2.238008,-3.48577 c -1.55359,-2.41876 -3.203045,-3.87352 -4.94992,-4.36519 -0.436677,-0.12185 -0.887271,-0.18787 -1.348303,-0.19311 z m 0.10439,2.05463 c 0.349688,-0.0114 0.687198,0.0174 1.012532,0.10432 1.297848,0.29749 2.502446,1.31176 3.613274,3.04124 l 1.315245,2.04889 -9.750744,6.26082 -1.315247,-2.04942 c -1.111696,-1.72928 -1.530975,-3.24705 -1.261314,-4.55117 0.260962,-1.30654 1.23,-2.49827 2.910245,-3.57672 1.268273,-0.81421 2.426767,-1.23871 3.476009,-1.27003 z m 165.48726,3.78187 c -0.23311,-0.003 -0.46624,0.003 -0.70111,0.0174 -1.87267,0.15662 -3.43843,1.08734 -4.69766,2.76218 -1.25435,1.67017 -1.69973,3.42539 -1.33438,5.265 0.37056,1.84342 1.49444,3.47044 3.37284,4.88155 1.88309,1.41441 3.75873,2.04245 5.62721,1.88187 1.87387,-0.15662 3.43841,-1.06993 4.69347,-2.74061 1.25958,-1.67538 1.70496,-3.43774 1.33787,-5.28657 -0.36535,-1.83943 -1.49097,-3.46642 -3.37319,-4.88154 -1.64754,-1.23869 -3.28987,-1.87318 -4.92643,-1.90503 z m -0.68198,1.95946 c 1.38833,-0.0348 2.83214,0.51846 4.33215,1.64408 1.50487,1.13083 2.4365,2.36742 2.79298,3.7093 0.35317,1.34656 0.087,2.60596 -0.78985,3.77611 -0.8803,1.17085 -2.01132,1.76826 -3.39529,1.79351 -1.3883,0.0348 -2.83456,-0.5202 -4.33995,-1.65101 -1.49966,-1.12738 -2.42869,-2.36189 -2.78534,-3.70358 -0.36013,-1.33612 -0.10442,-2.58961 0.77767,-3.75975 0.88031,-1.17086 2.01514,-1.77351 3.40728,-1.80953 z m -153.911001,3.43845 -11.045811,10.0016 1.313506,1.45095 9.240304,-8.36729 -4.805346,13.26537 1.821685,2.01183 11.04581,-10.00161 -1.313507,-1.45094 -9.240477,8.36746 4.806043,-13.26486 z m 143.102671,5.37651 -1.41616,1.35003 8.60566,9.01902 -13.38612,-4.4576 -1.96417,1.87424 10.28728,10.78067 1.41616,-1.35004 -8.60565,-9.01902 13.38559,4.45758 1.96417,-1.8737 z m -132.489537,5.619 -9.856171,11.17596 1.511836,1.33438 9.855478,-11.17594 z"
       id="path1008"
       inkscape:connector-curvature="0" />
  </g>
</svg>
