<?xml version="1.0" encoding="UTF-8" standalone="no"?>
<svg
   xmlns:dc="http://purl.org/dc/elements/1.1/"
   xmlns:cc="http://creativecommons.org/ns#"
   xmlns:rdf="http://www.w3.org/1999/02/22-rdf-syntax-ns#"
   xmlns:svg="http://www.w3.org/2000/svg"
   xmlns="http://www.w3.org/2000/svg"
   xmlns:sodipodi="http://sodipodi.sourceforge.net/DTD/sodipodi-0.dtd"
   xmlns:inkscape="http://www.inkscape.org/namespaces/inkscape"
   id="svg931"
   version="1.1"
   viewBox="0 0 270.93332 270.93335"
   height="1024"
   width="1024"
   sodipodi:docname="prodyogiki.svg"
   inkscape:version="0.92.4 5da689c313, 2019-01-14">
  <sodipodi:namedview
     pagecolor="#ffffff"
     bordercolor="#666666"
     borderopacity="1"
     objecttolerance="10"
     gridtolerance="10"
     guidetolerance="10"
     inkscape:pageopacity="0"
     inkscape:pageshadow="2"
     inkscape:window-width="1855"
     inkscape:window-height="1052"
     id="namedview7"
     showgrid="false"
     units="px"
     inkscape:pagecheckerboard="true"
     inkscape:snap-page="true"
     inkscape:snap-bbox="true"
     inkscape:bbox-nodes="true"
     inkscape:snap-bbox-edge-midpoints="true"
     inkscape:zoom="0.5946522"
     inkscape:cx="480.93315"
     inkscape:cy="493.99363"
     inkscape:window-x="65"
     inkscape:window-y="0"
     inkscape:window-maximized="1"
     inkscape:current-layer="svg931"
     inkscape:snap-center="true" />
  <defs
     id="defs925" />
  <metadata
     id="metadata928">
    <rdf:RDF>
      <cc:Work
         rdf:about="">
        <dc:format>image/svg+xml</dc:format>
        <dc:type
           rdf:resource="http://purl.org/dc/dcmitype/StillImage" />
        <dc:title></dc:title>
      </cc:Work>
    </rdf:RDF>
  </metadata>
  <path
     style="opacity:1;vector-effect:none;fill:#ffffff;fill-opacity:1;stroke:none;stroke-width:2.41341615;stroke-linecap:butt;stroke-linejoin:miter;stroke-miterlimit:4;stroke-dasharray:none;stroke-dashoffset:0;stroke-opacity:1"
     d="M 512 0 A 511.99996 511.99996 0 0 0 0 512 A 511.99996 511.99996 0 0 0 512 1024 A 511.99996 511.99996 0 0 0 1024 512 A 511.99996 511.99996 0 0 0 512 0 z M 512 35.595703 C 775.01645 35.595703 988.40625 248.98351 988.40625 512 C 988.40625 775.01645 775.01645 988.40625 512 988.40625 C 248.98351 988.40625 35.595703 775.01645 35.595703 512 C 35.595703 248.98351 248.98351 35.595703 512 35.595703 z M 512 51.591797 C 257.63055 51.591797 51.591797 257.63055 51.591797 512 C 51.591797 766.36942 257.63055 972.40234 512 972.40234 C 766.36942 972.40234 972.40234 766.36942 972.40234 512 C 972.40234 257.63055 766.36942 51.591797 512 51.591797 z M 491.69531 68.958984 C 496.06542 69.105213 500.49676 70.629981 504.36719 73.820312 C 512.1241 80.214215 514.30107 91.912255 509.31641 100.41797 C 506.28749 105.58643 503.39333 108.02311 497.69531 110.19922 L 493.48047 111.80859 L 493.48047 141.38086 C 493.48047 157.78972 493.09695 171.35526 492.61914 171.85547 C 492.14549 172.35138 488.94268 179.06476 485.50195 186.77539 L 479.24609 200.79492 L 479.24609 227.3418 C 479.24609 241.94277 479.60201 253.88867 480.03711 253.88867 C 480.47202 253.88867 481.12082 253.59563 481.47852 253.23828 C 482.52919 252.18762 489.02885 250.12296 491.33398 250.10742 C 493.70568 250.08928 495.39271 252.4378 502.24023 265.27539 C 505.93 272.19292 506.86233 273.30961 508.78906 273.10938 C 510.02467 272.98072 513.70002 272.60173 516.95703 272.26758 C 520.214 271.93354 523.26547 271.18484 523.73633 270.60352 C 524.60535 269.53056 525.028 266.93008 526.52148 253.50586 C 527.57518 244.03458 528.28041 243.45117 538.6582 243.45117 C 549.06392 243.45117 549.46312 243.65536 549.48047 249.00781 C 549.48803 251.43105 550.11116 255.12332 550.86328 257.21094 C 551.61537 259.29856 552.24858 262.7553 552.27148 264.89258 C 552.32931 270.2939 554.15322 271.5473 562.97656 272.25391 C 571.49293 272.93587 570.23691 274.00916 577.79102 259.58203 C 582.79855 250.0184 584.11208 249.01112 589.17578 250.85352 C 590.56147 251.35789 593.51466 252.3179 595.74023 252.98633 C 602.56308 255.03552 602.32994 253.22217 599.11719 279.26562 C 598.70775 282.58452 598.92977 283.41026 600.37695 283.96289 C 601.34255 284.33136 604.66926 286.06608 607.76953 287.81641 C 614.33487 291.52303 612.6093 292.2597 625.81641 280.09766 L 633.9375 272.62109 L 637.61914 275.17188 C 643.49075 279.24093 649.10696 284.30791 649.08398 285.51562 C 649.07265 286.12733 648.22765 287.69521 647.20703 289 C 646.18645 290.30473 645.34164 291.96857 645.33008 292.69922 C 645.31874 293.42987 643.60129 296.99035 641.51367 300.61133 C 639.42601 304.23224 637.7168 307.89373 637.7168 308.74609 C 637.7168 310.48863 647.98077 321.26172 649.64062 321.26172 C 650.22895 321.26172 652.16304 320.56755 653.93945 319.71875 C 665.37506 314.25449 672.56621 311.50107 673.64844 312.16992 C 675.19861 313.12799 684.21484 326.24207 684.21484 327.53906 C 684.21484 328.17934 680.15735 332.43424 675.19922 336.99414 C 670.17849 341.6116 666.18555 346.0462 666.18555 347.00391 C 666.18555 347.94971 667.03824 350.24513 668.08203 352.10352 C 669.12586 353.96197 669.98047 356.02871 669.98047 356.69727 C 669.98047 357.36588 670.88927 358.88789 672 360.08008 C 674.1676 362.40672 673.77625 362.39751 691.63867 360.55078 C 695.38324 360.16359 698.01407 360.30271 698.63281 360.92188 C 699.85432 362.14337 701.33497 368.47383 701.95508 375.12305 L 702.42188 380.11523 L 693.08008 384.4082 C 687.94291 386.76965 683.0993 389.0509 682.31641 389.47852 C 680.62325 390.40329 679.95639 398.63431 681.12109 404.21875 C 681.89306 407.91985 681.93296 407.94918 688.79492 409.59766 C 692.58919 410.50916 696.21195 411.68494 696.8457 412.21094 C 697.47949 412.73709 699.7002 413.30521 701.78125 413.47461 L 705.56641 413.7832 L 705.80664 423.27344 C 705.93892 428.49255 705.6448 433.38409 705.1543 434.14453 C 704.48249 435.18549 701.30745 435.65504 692.30469 436.04297 C 679.10299 436.61194 678.56059 436.87613 678.53516 442.77344 C 678.5276 444.6262 678.13918 446.54717 677.67188 447.04297 C 675.77368 449.05867 675.56312 453.71816 677.29883 455.28516 C 679.71739 457.46814 691.81258 465.5 692.68164 465.5 C 693.08151 465.5 694.17097 466.34077 695.10156 467.36914 C 696.72872 469.16706 696.71242 469.45081 694.67578 474.72461 C 690.28374 486.09917 689.89927 486.57749 685.63672 486.01562 C 678.07324 485.01847 674.23115 484.23983 673.30078 483.51367 C 672.7789 483.10654 670.47812 482.62261 668.1875 482.43945 L 664.02344 482.10547 L 658.92383 489.5332 L 653.82227 496.96094 L 657.61523 501.39453 C 659.70063 503.8335 663.33554 508.08437 665.69336 510.8418 C 668.05122 513.59923 669.98047 516.20013 669.98047 516.62109 C 669.98047 517.04213 666.84663 520.75306 663.01562 524.86719 L 656.04883 532.34766 L 645.96289 525.49414 C 640.41572 521.72452 635.62724 518.64063 635.32227 518.64062 C 635.01726 518.64062 631.80325 521.00574 628.17773 523.89844 C 622.74723 528.23136 621.58594 529.64241 621.58594 531.9082 C 621.58594 533.42092 622.01129 534.92351 622.5332 535.24609 C 623.05508 535.56849 623.48242 536.8486 623.48242 538.0918 C 623.48242 539.33496 623.90976 540.61687 624.43164 540.93945 C 624.95356 541.26185 625.38086 542.28987 625.38086 543.22266 C 625.38086 544.15556 626.05154 546.26149 626.87109 547.9043 C 629.4555 553.08493 628.5374 554.48913 619.41797 559.30859 L 611.08398 563.71289 L 608.98047 561.17383 C 607.82356 559.77707 604.35385 555.36881 601.26953 551.37695 C 596.61383 545.35155 595.32444 544.22522 593.67773 544.74219 C 592.58677 545.08461 589.41137 545.94141 586.62109 546.64648 C 578.27662 548.75486 578.02931 549.22488 577.72461 563.58398 L 577.46094 576.01953 L 573.66406 576.85938 C 571.57644 577.32086 567.11518 577.75378 563.75 577.82227 L 557.63281 577.94727 L 555.86328 573.20312 C 554.89085 570.59363 553.44395 566.32247 552.64844 563.71289 C 550.02439 555.10513 549.92952 555.04208 539.95508 555.29297 C 535.13493 555.41429 530.89484 555.86471 530.53125 556.29297 C 530.16766 556.72126 529.31864 558.99324 528.64648 561.3418 C 526.24036 569.74924 522.36411 578.42187 521.01172 578.42188 C 520.37222 578.42188 520.05078 599.7158 520.05078 642.03906 C 520.05078 705.43727 520.05709 705.6638 522.04883 707.75195 C 523.14844 708.90448 533.2506 719.98943 544.49609 732.38477 C 555.74159 744.78007 565.52669 754.92187 566.24219 754.92188 C 566.95769 754.92188 567.95976 756.01676 568.46875 757.35547 C 569.03772 758.85205 569.39453 785.11495 569.39453 825.53711 L 569.39453 891.2832 L 573.99023 894.14062 C 584.92894 900.94052 586.5393 916.88691 577.20508 925.98242 C 559.34141 943.38915 531.91372 922.00287 544.36133 900.37305 C 545.92798 897.65077 548.40591 895.35158 552.09961 893.19336 L 557.5332 890.01953 L 557.77734 827.1582 L 558.02148 764.29688 L 535.47656 739.52539 C 523.07752 725.90129 512.93359 714.40638 512.93359 713.98047 C 512.93359 713.55463 511.97313 712.53348 510.79883 711.71094 L 508.66406 710.21484 L 508.66406 644.28906 C 508.66406 582.33028 508.56241 578.33188 507.00195 577.84961 C 502.56086 576.4773 502.51426 576.33532 502.02148 563.21484 C 501.687 554.30249 501.19616 550.46679 500.35938 550.18945 C 499.4143 549.87613 499.17598 575.89852 499.18555 678.2168 L 499.19727 806.63867 L 504.35156 811.1582 C 507.86539 814.23977 510.49831 817.69749 512.62891 822.02539 C 515.33146 827.51508 515.75391 829.34669 515.75391 835.58008 C 515.75391 841.80194 515.33081 843.64924 512.6543 849.08594 C 500.44514 873.88633 466.6811 873.83331 454.40625 848.99414 C 452.60606 845.35143 452.229 843.04457 452.2168 835.58008 C 452.20168 827.06786 452.38693 826.22368 455.51562 820.45117 C 457.77351 816.28541 460.41692 813.11199 463.81445 810.48828 L 468.80078 806.63867 L 468.80469 685.41211 C 468.80847 566.85721 468.76722 564.1875 467.00195 564.1875 C 466.00828 564.1875 462.59176 562.71631 459.41016 560.91797 L 453.625 557.64844 L 453.625 640.95508 C 453.625 723.26491 453.60239 724.2824 451.71289 725.99219 C 450.66116 726.94399 449.45966 729.03833 449.04297 730.64648 C 448.62624 732.25467 447.67154 733.57031 446.92188 733.57031 C 445.72603 733.57031 429.88703 753.83808 416.82227 772.08594 L 412.34766 778.33789 L 412.59766 846.37305 C 412.83123 909.9752 412.95345 914.44993 414.49414 915.01758 C 418.31921 916.427 422.42675 920.55896 424.77539 925.35938 C 426.81339 929.52491 427.20833 931.4507 426.86719 935.56445 C 426.33083 942.03164 422.52105 948.65698 417.38086 952.05859 C 412.55486 955.25231 402.91229 956.04421 397.64062 953.68164 L 397.63867 953.68164 C 380.79533 946.12826 380.94501 921.92517 397.87891 914.85156 L 401.4375 913.36523 L 401.43945 843.39648 L 401.44141 773.42578 L 421.8418 745.92969 L 442.24023 718.43555 L 442.24023 619.96094 C 442.24023 565.7997 442.00693 521.48633 441.7207 521.48633 C 441.43421 521.48633 438.62735 523.19363 435.48438 525.28125 C 432.3414 527.36887 429.43926 529.07617 429.03516 529.07617 C 428.63105 529.07617 427.52864 529.93074 426.58398 530.97461 C 423.71555 534.14416 421.24168 533.28267 414.93164 526.91602 C 411.68476 523.64007 409.0293 520.46213 409.0293 519.85352 C 409.0293 519.2449 411.26976 516.04887 414.00977 512.75195 C 416.74981 509.45511 420.41086 504.93394 422.14453 502.70508 L 425.29688 498.65234 L 419.9082 490.55469 C 415.71709 484.2558 414.17127 482.60746 412.95898 483.14453 C 412.10164 483.52449 409.79634 484.02617 407.83594 484.25781 C 405.8755 484.48912 404.03654 485.06053 403.74805 485.52734 C 403.45967 485.99427 401.77875 486.375 400.01367 486.375 C 398.24859 486.375 396.54129 486.80238 396.21875 487.32422 C 395.54112 488.42066 390.09585 488.57725 388.49023 487.54688 C 386.82392 486.47731 380.59581 473.1346 381.16406 471.85156 C 381.43997 471.22858 386.22118 467.70486 391.78906 464.02148 C 400.93476 457.97118 401.94198 457.01962 402.21875 454.17383 C 402.38732 452.44129 402.06599 450.5658 401.50586 450.00586 C 400.94588 449.44592 400.48828 447.60625 400.48828 445.91797 C 400.48828 444.22962 400.07153 441.75281 399.5625 440.41406 L 398.63672 437.98047 L 386.27734 437.98047 C 370.44217 437.98047 370.12305 437.7473 370.12305 426.1875 C 370.12305 417.03912 371.15403 415.20703 376.30273 415.20703 C 378.06133 415.20703 379.76335 414.77965 380.08594 414.25781 C 380.40833 413.73594 382.05972 413.30859 383.75586 413.30859 C 385.45196 413.30859 387.66854 412.68231 388.68164 411.91602 C 389.69471 411.14975 391.61251 410.50874 392.94336 410.49219 C 396.94153 410.44381 397.64062 408.85029 397.64062 399.80078 L 397.64062 391.41992 L 390.76172 388.31055 C 386.97788 386.60137 381.95993 384.39978 379.61133 383.41797 C 377.26275 382.43616 374.8211 381.24614 374.18555 380.77344 C 372.90727 379.82262 373.42533 373.90715 375.36133 367.33984 L 376.49609 363.49023 L 391.00586 363.01562 L 405.51367 362.54102 L 408.2207 357.20117 C 413.24797 347.28278 413.32157 347.53173 402.46484 337.51367 C 397.20287 332.65822 392.89648 328.06217 392.89648 327.30078 C 392.89648 325.54695 398.62573 316.60733 401.23047 314.29688 C 403.4687 312.31158 404.48031 312.50533 413.56055 316.64844 C 416.83555 318.14271 419.88088 319.36523 420.33008 319.36523 C 420.77924 319.36523 422.37032 320.00351 423.86523 320.7832 C 425.36015 321.56284 427.04949 322.20188 427.61914 322.20508 C 428.66645 322.21113 440.34375 310.52304 440.34375 309.46875 C 440.34375 309.15524 438.6181 305.80954 436.50977 302.0332 C 434.40147 298.25687 431.54932 292.87068 430.17188 290.0625 L 427.66797 284.95508 L 432.44922 280.57227 C 435.07905 278.16136 438.3585 275.42209 439.73633 274.48438 L 442.24023 272.7793 L 442.24023 217.04688 L 442.24023 161.31445 L 425.26172 151.07031 L 408.28125 140.82617 L 404.26758 142.87305 C 393.40571 148.41439 378.64311 142.44313 374.85938 130.97852 C 370.52002 117.83013 381.05004 103.00977 394.73242 103.00977 C 401.03131 103.00977 408.68407 107.06436 412.34375 112.3418 C 414.90121 116.0297 415.20863 117.24587 415.30859 124.08203 L 415.41992 131.70703 L 431.43945 141.33203 C 440.25055 146.6262 448.74093 151.38929 450.30664 151.91602 L 453.1543 152.87305 L 453.62695 217.37891 L 454.10156 281.88281 L 456.47461 285.05859 C 458.91913 288.33177 462.86024 290.89648 465.44336 290.89648 C 466.75183 290.89648 466.91211 285.65568 466.91211 243.31836 C 466.91211 203.83614 467.13787 195.55977 468.23242 194.68555 C 468.95794 194.10627 472.16078 187.7068 475.34961 180.46484 L 481.14648 167.29883 L 481.13867 138.23828 L 481.13086 109.17773 L 477.85352 106.94531 C 473.29987 103.84447 469.75781 96.418859 469.75781 89.974609 C 469.75781 77.204334 480.52726 68.585288 491.69531 68.958984 z M 490.87305 84.044922 C 487.73271 84.062308 486.52516 84.789344 485.08398 87.527344 C 483.60026 90.346191 483.6888 90.978638 485.96094 93.867188 C 488.36717 96.926235 492.6503 97.199319 495.38086 94.46875 C 499.23095 90.618674 496.37472 84.014285 490.87305 84.044922 z M 394.54492 117.35547 C 393.19717 117.41324 391.90322 118.14954 390.48047 119.57227 C 386.13273 123.91996 388.73543 130.5293 394.79492 130.5293 C 396.37643 130.5293 398.48473 129.68522 399.53906 128.63086 C 402.26958 125.90029 401.99654 121.61719 398.9375 119.21094 C 397.29579 117.91956 395.89268 117.2977 394.54492 117.35547 z M 539.25781 295.16211 C 525.74453 295.01804 511.6618 296.91955 503.21289 300.23047 L 499.18359 301.80859 L 499.17969 330.03906 C 499.17776 345.56585 499.35228 358.27148 499.56836 358.27148 C 499.78455 358.27148 502.1571 355.43376 504.92383 352.0332 C 512.15765 343.14216 527.57316 332.05795 531.48633 330.20898 C 560.92084 316.30127 580.70628 327.23811 580.41602 326.41016 C 591.43103 331.45298 603.29724 341.12389 612.18359 352.29688 C 618.7337 360.53242 627.88542 378.96061 629.72461 387.62109 C 637.89394 426.08822 628.31731 457.89617 603.32031 475.32422 C 585.62339 487.66264 575.07157 491.1498 555.64453 491.07617 C 543.82784 491.03384 542.97686 490.89343 535.70898 487.8418 C 525.52422 483.56556 516.48481 475.98038 507.16211 463.88672 L 499.65039 454.14062 L 499.40039 487.10352 C 499.1706 517.24838 499.28744 520.1652 500.76758 521.25 C 501.65781 521.90235 503.18041 522.4375 504.15039 522.4375 C 505.12037 522.4375 507.09285 523.04715 508.53516 523.79297 C 514.24731 526.74682 538.18029 527.91742 555.63672 526.09766 L 555.63672 526.0957 C 561.37771 525.4971 566.92883 524.4773 567.97266 523.82812 C 569.01645 523.17899 571.45534 522.37073 573.39258 522.03125 C 578.01044 521.22209 590.02486 516.11545 595.01758 512.83984 C 596.32235 511.98378 600.46877 509.2858 604.23242 506.8457 C 622.51604 494.99197 642.06896 469.21771 648.19531 448.89258 C 648.8246 446.80496 649.71406 444.35547 650.17188 443.44922 C 650.62973 442.543 651.00391 440.60901 651.00391 439.15234 C 651.00391 437.69564 651.66084 435.56688 652.46289 434.42188 C 653.69464 432.66334 653.86808 429.05914 653.58594 411.20117 C 653.27413 391.46372 652.78944 387.11491 650.06055 379.62109 C 649.68063 378.57723 648.84843 376.01536 648.21094 373.92773 C 646.78405 369.2553 645.03412 365.18332 641.2832 357.79688 C 628.71393 333.04495 602.40134 309.89891 577.71094 301.87695 C 575.23807 301.07352 572.46249 300.02213 571.54297 299.54102 C 568.73198 298.07048 560.24277 296.62204 548.44531 295.59766 C 545.46371 295.33876 542.37626 295.19536 539.25781 295.16211 z M 560.58008 328.06055 C 540.3861 327.90721 521.71102 338.3815 505.41406 359.07422 L 499.17578 366.99219 L 499.17578 379.74414 L 499.17578 392.49805 L 504.1582 391.89453 C 525.22015 389.34603 525.01021 392.63973 530.23242 382.90234 C 535.15276 373.72777 536.4024 372.31023 542.14062 369.40039 C 546.09303 367.39607 547.15313 367.23068 550.39453 368.10352 C 552.43956 368.6544 554.98879 370.2195 556.06055 371.58203 C 558.18336 374.28076 558.62395 379.4214 556.99414 382.4668 C 556.27206 383.81597 556.27944 385.75633 557.01758 389.19922 C 557.76388 392.67911 557.76702 394.91244 557.0293 397.15234 C 556.23284 399.56561 556.31965 401.20237 557.41602 404.43164 C 558.89748 408.79514 558.34055 414.29461 556.15039 416.93359 C 555.3647 417.88033 555.31884 419.29244 555.99023 421.88867 C 556.50671 423.88566 556.852 430.49234 556.75781 436.57031 C 556.61457 445.81538 556.30127 447.93639 554.83984 449.55078 C 552.0171 452.66889 546.90767 454.67411 543.625 453.95312 C 539.90731 453.1366 534.31577 448.08497 530.43359 442.03516 C 528.76259 439.43114 526.22831 436.69724 524.80078 435.95898 C 521.94815 434.48383 513.11437 429.53355 504.63281 428.75977 L 499.17773 428.26367 L 499.17773 437.70117 C 499.17773 446.64969 499.30542 447.25829 501.65039 449.43945 C 503.0106 450.70476 506.96028 455.5546 510.42773 460.2168 C 518.25589 470.74233 528.79075 479.92881 536.06445 482.57422 C 539.00186 483.6425 542.25894 484.90509 543.30273 485.38086 C 546.38014 486.7837 564.54005 486.48463 571.17188 484.92188 C 580.94813 482.61712 589.23201 478.8922 598.31836 472.71484 C 609.06087 465.41151 612.36134 461.99517 618.23828 452.09375 C 626.44435 438.26824 629.54378 421.17197 627.34375 401.87109 C 625.80231 388.34764 624.09917 382.24064 619.05078 372.12109 C 613.19474 360.38279 605.99476 351.04676 596.66602 343.09766 C 586.50468 334.43899 578.37725 330.18198 569.32422 328.77734 C 566.37987 328.32052 563.46493 328.08245 560.58008 328.06055 z M 547.81836 372.98438 C 546.60123 373.05017 545.23882 373.60062 543.01367 374.78125 C 539.25837 376.77386 538.05539 378.18919 534.97266 384.23828 C 528.66232 396.62088 526.39744 394.8094 510.23047 396.18945 C 505.08925 396.6286 500.48556 397.38558 500 397.87109 C 499.51448 398.35676 499.23804 404.27126 499.38477 411.01367 L 499.65039 423.27148 L 503.44727 423.51758 C 509.99809 423.94285 524.16875 429.90617 526.82031 431.27734 C 529.34096 432.58087 530.52431 433.9088 536.49219 442.11914 C 541.39843 448.86892 546.52757 450.56148 550.16797 446.63281 C 552.03608 444.61677 552.67455 442.53736 552.42578 439.2793 C 552.34188 438.17998 551.28656 437.92728 547.78906 438.16992 C 544.15278 438.42239 542.90663 438.0947 541.46875 436.50586 C 537.81939 432.47337 542.58706 428.03314 549.48047 429.04492 C 552.10562 429.43028 552.31424 429.24534 552.30078 426.54102 C 552.28188 422.67161 551.23795 421.0995 549.44336 422.23438 C 545.53087 424.70857 539.03125 422.31635 539.03125 418.40234 C 539.03125 414.89147 541.81983 413.38554 547.28125 413.94922 C 551.67707 414.40288 552.45488 414.224 553.35547 412.54102 C 554.23175 410.90365 553.82938 404.16797 552.85547 404.16797 C 552.67783 404.16797 551.30937 404.8063 549.81445 405.58594 C 546.06943 407.53908 543.80235 407.37098 541.22656 404.95117 C 535.57156 399.63859 542.51585 392.25246 549.63867 396.00391 C 552.76393 397.64989 553.26562 397.20591 553.26562 392.78125 C 553.26562 388.3592 552.7654 387.91364 549.63867 389.54492 C 546.51319 391.1756 542.64097 391.26631 541.11914 389.74414 C 539.31483 387.93987 539.75191 382.57031 541.87695 380.44531 C 544.04508 378.27715 546.39972 378.05445 549.9668 379.67969 C 551.96159 380.58859 552.60871 380.55847 553.24609 379.52734 C 554.48975 377.51515 552.83688 374.36804 550.00586 373.35742 C 549.22688 373.07931 548.54864 372.9449 547.81836 372.98438 z M 546.6543 383.86914 C 545.93574 383.86775 545.14573 384.20691 544.67773 384.77148 C 543.44761 386.2537 544.16239 386.41158 547.02734 385.28906 C 548.60394 384.67145 548.64627 384.49187 547.33398 383.98828 C 547.12473 383.90797 546.89382 383.8696 546.6543 383.86914 z M 546.33008 400.38672 C 544.79181 400.37916 543.91154 400.77446 544.25 401.32227 C 544.97816 402.50046 545.7491 402.50046 547.57227 401.32227 C 548.67748 400.60797 548.39982 400.39794 546.33008 400.38672 z M 454.86133 528.12891 C 453.93992 528.12891 453.62695 530.3038 453.62695 536.72461 C 453.62695 542.21384 453.97005 545.10889 454.57617 544.73438 C 455.09805 544.41198 455.54005 543.21178 455.55664 542.06836 C 455.57176 540.92483 456.21225 539.16154 456.97852 538.14844 C 459.65695 534.60725 458.28823 528.12891 454.86133 528.12891 z M 483.99023 818.74609 C 471.71798 818.65895 462.95359 831.69395 468.70898 842.9707 C 470.8753 847.21515 473.0089 849.24357 477.37891 851.21289 C 481.72661 853.17212 488.98385 852.43726 493.09375 849.62109 C 496.38205 847.36793 499.45085 842.61996 500.50391 838.1543 C 502.28516 830.60091 494.67576 820.17106 486.48828 818.94336 C 485.64222 818.81649 484.80838 818.7519 483.99023 818.74609 z M 562.2793 904.85156 C 561.09014 904.85156 559.14565 905.63907 557.95703 906.60156 C 553.45822 910.2445 556.41517 918.13672 562.2793 918.13672 C 563.46841 918.13672 565.41489 917.34921 566.60352 916.38672 C 571.10233 912.7439 568.14342 904.85156 562.2793 904.85156 z M 406.02734 927.80859 C 402.66247 927.57116 399.53906 930.10168 399.53906 934.26758 C 399.53906 940.48006 407.063 943.23401 410.85742 938.41016 C 413.44016 935.12669 413.33963 932.80061 410.49414 929.95508 C 409.13547 928.59641 407.55683 927.91652 406.02734 927.80859 z "
     transform="scale(0.26458333)"
     id="path816" />
</svg>
