<?xml version="1.0" encoding="UTF-8" standalone="no"?>
<!-- Created with Inkscape (http://www.inkscape.org/) -->

<svg
   xmlns:dc="http://purl.org/dc/elements/1.1/"
   xmlns:cc="http://creativecommons.org/ns#"
   xmlns:rdf="http://www.w3.org/1999/02/22-rdf-syntax-ns#"
   xmlns:svg="http://www.w3.org/2000/svg"
   xmlns="http://www.w3.org/2000/svg"
   xmlns:sodipodi="http://sodipodi.sourceforge.net/DTD/sodipodi-0.dtd"
   xmlns:inkscape="http://www.inkscape.org/namespaces/inkscape"
   width="1024"
   height="1024"
   viewBox="0 0 270.93333 270.93334"
   version="1.1"
   id="svg8"
   inkscape:version="0.92.4 5da689c313, 2019-01-14"
   sodipodi:docname="nith.svg">
  <defs
     id="defs2" />
  <sodipodi:namedview
     id="base"
     pagecolor="#ffffff"
     bordercolor="#666666"
     borderopacity="1.0"
     inkscape:pageopacity="0.0"
     inkscape:pageshadow="2"
     inkscape:zoom="0.49497475"
     inkscape:cx="701.20388"
     inkscape:cy="309.78973"
     inkscape:document-units="mm"
     inkscape:current-layer="layer1"
     showgrid="false"
     units="px"
     inkscape:snap-page="true"
     inkscape:snap-bbox="true"
     inkscape:snap-bbox-edge-midpoints="true"
     inkscape:bbox-nodes="true"
     inkscape:pagecheckerboard="true"
     inkscape:window-width="1855"
     inkscape:window-height="1052"
     inkscape:window-x="65"
     inkscape:window-y="0"
     inkscape:window-maximized="1" />
  <metadata
     id="metadata5">
    <rdf:RDF>
      <cc:Work
         rdf:about="">
        <dc:format>image/svg+xml</dc:format>
        <dc:type
           rdf:resource="http://purl.org/dc/dcmitype/StillImage" />
        <dc:title></dc:title>
      </cc:Work>
    </rdf:RDF>
  </metadata>
  <g
     inkscape:label="Layer 1"
     inkscape:groupmode="layer"
     id="layer1"
     transform="translate(0,-26.06665)">
    <path
       style="fill:#ffffff;stroke-width:0.89588833"
       d="M 111.06882,295.15737 C 57.044348,285.47868 13.620405,243.02447 2.0110524,188.53498 0.30387488,180.52266 -0.00208711,176.40233 1.0671155e-5,161.46064 0.00273779,142.54425 0.96394298,136.04347 6.2172166,119.43472 18.77802,79.718414 51.266209,46.854194 91.501204,33.163659 c 16.745146,-5.697785 29.551186,-7.57105 47.844396,-6.998635 22.76716,0.712423 37.44421,4.434199 57.72402,14.637586 36.99601,18.613759 62.45914,51.898442 71.64524,93.65253 2.75051,12.50255 2.99123,40.20337 0.45417,52.31144 -5.72538,27.32699 -17.73237,49.92398 -37.01343,69.65879 -20.32848,20.80673 -45.00441,33.8769 -73.22938,38.78763 -13.81517,2.40362 -34.26333,2.37986 -47.85772,-0.0556 z m 38.30251,-0.88354 C 206.01384,288.05557 252.05561,247.78198 265.40812,192.77407 276.03308,149.00261 263.59133,102.47385 232.57558,69.989162 213.9698,50.502283 192.71976,38.187534 166.87557,31.91489 121.93807,21.008153 75.231097,33.933501 41.832783,66.518249 30.850668,77.232864 23.212947,87.590872 16.475176,100.90711 4.8646696,123.85381 0.45344696,146.00246 2.3000223,172.08005 7.5482613,246.19442 75.214524,302.41481 149.37133,294.27383 Z m -12.21466,-7.12793 c -0.50557,-0.96146 -0.91883,-2.38494 -0.91883,-3.16324 0,-1.68854 -1.44034,-1.88627 -2.07859,-0.28534 -0.3388,0.85013 -0.68388,0.7943 -1.39251,-0.22598 -1.61488,-2.32382 -1.11057,-2.7082 3.69304,-2.81528 l 4.66233,-0.10354 -3.55218,-0.74776 c -7.24659,-1.52542 -7.54857,-1.37872 -7.54857,3.66699 0,2.48539 -0.39962,4.5189 -0.88841,4.5189 -0.48878,0 -0.88841,-2.03351 -0.88841,-4.5189 0,-2.48541 -0.39963,-4.51893 -0.88841,-4.51893 -0.48879,0 -0.88841,1.80616 -0.88841,4.01368 0,6.16899 -1.75753,6.05759 -1.88161,-0.11923 l -0.10594,-5.2501 -0.85065,4.74487 c -0.46781,2.60967 -1.26224,4.74486 -1.76571,4.74486 -0.50347,0 -0.70066,-0.57002 -0.43739,-1.26661 0.28425,-0.75246 -0.21607,-1.45136 -1.23266,-1.72177 -2.02352,-0.53853 -3.41005,-3.51764 -1.87888,-4.03704 1.521,-0.51591 1.28699,-2.91619 -0.28425,-2.91619 -0.73317,0 -1.33209,0.4067 -1.33209,0.90381 0,0.49712 -0.79926,0.90383 -1.77609,0.90383 -1.02057,0 -1.77619,0.60258 -1.77619,1.41657 0,0.99487 0.5171,1.24948 1.73801,0.85525 1.53547,-0.49594 1.70466,-0.18393 1.45219,2.67879 -0.26432,3.00185 -1.41401,5.71191 -1.41401,3.33411 0,-0.57995 -0.69961,-1.06714 -1.55414,-1.08281 -1.89955,-0.0342 -4.9878,-4.13129 -4.36329,-5.7877 0.24963,-0.66077 1.66249,-1.74625 3.1407,-2.41217 3.01829,-1.35966 2.13397,-2.58051 -1.8856,-2.60331 -2.30441,-0.0128 -2.44224,0.21563 -2.44224,4.0532 0,2.23687 -0.39963,4.06702 -0.88841,4.06702 -0.48878,0 -0.88841,-1.2201 -0.88841,-2.71135 0,-1.82268 -0.44264,-2.71134 -1.34898,-2.71134 -1.01533,0 -1.20319,0.59147 -0.75835,2.39425 0.92932,3.76752 -1.22154,1.73555 -2.27578,-2.15014 -0.95974,-3.53535 -0.49194,-5.11483 0.86533,-2.92929 0.70486,1.13402 0.82863,1.11117 0.84016,-0.15543 0.0105,-1.21276 -1.63962,-2.5821 -3.11279,-2.5821 -0.17412,0 -0.586335,1.83016 -0.916736,4.06702 -0.856945,5.8183 -2.115826,5.02633 -1.819619,-1.14511 0.272712,-5.67871 1.667005,-9.24839 3.613015,-9.24839 0.96288,0 3.37607,2.7449 5.35093,6.08521 0.10803,0.18211 20.78496,4.76019 21.49978,4.76019 0.14579,0 0.26432,-0.5602 0.26432,-1.24501 0,-0.68478 0.6157,-1.76514 1.36849,-2.40086 1.15011,-0.9715 1.82979,-0.70068 4.26049,1.6969 2.15097,2.12168 3.70679,2.85276 6.07099,2.85276 h 3.17888 l -0.40487,4.29297 c -0.58738,6.22931 -1.05435,7.39971 -2.15495,5.40446 -0.48564,-0.87992 -0.63143,-2.40506 -0.32411,-3.38919 0.39439,-1.26374 0.14895,-1.78932 -0.83387,-1.78932 -1.59903,0 -1.80934,2.03659 -0.47305,4.57833 0.60207,1.14423 0.61256,1.74815 0.0315,1.74815 -0.48878,0 -1.30168,-0.78673 -1.80735,-1.74815 z m -15.19835,-7.06374 c -0.042,-1.41658 -0.28216,-1.9024 -0.56326,-1.12972 -0.27166,0.74562 -0.88841,1.86405 -1.37069,2.4854 -0.62619,0.80657 -0.46571,1.12972 0.56325,1.12972 0.99645,0 1.41926,-0.766 1.3708,-2.4854 z m 10.37281,-4.5887 c -1.57439,-1.60227 -2.78523,-0.91215 -2.00947,1.1453 0.31257,0.82899 1.09263,1.15585 1.95472,0.81917 1.29716,-0.50662 1.30241,-0.6947 0.0524,-1.96448 z m -25.88174,-0.0939 c 0.2811,-0.46275 0.10489,-1.0968 -0.39124,-1.40902 -0.49612,-0.31223 -0.90309,0.0662 -0.90309,0.84137 0,1.58752 0.53284,1.82127 1.29423,0.56768 z m -3.49543,-5.46385 c -0.87373,-0.98249 -1.93458,-1.56849 -2.35781,-1.30233 -1.265173,0.79579 -0.873726,2.02439 0.78457,2.46558 2.93774,0.78127 3.15759,0.6187 1.57303,-1.16325 z m 46.25396,14.90026 c -1.93196,-1.82212 -2.21201,-2.58101 -1.47191,-3.98826 0.50242,-0.95591 1.41799,-1.97916 2.03411,-2.27401 0.6157,-0.29483 0.021,-0.32258 -1.32192,-0.0619 -2.91288,0.56598 -3.32792,-1.12298 -0.44368,-1.80691 1.09893,-0.26056 5.19517,-1.20105 9.10261,-2.08985 6.85808,-1.55991 7.10457,-1.7058 7.10457,-4.2054 0,-1.42417 0.50032,-2.76267 1.11287,-2.97443 0.70905,-0.24531 1.03106,0.34446 0.88841,1.62511 -0.12377,1.10559 0.27481,2.19064 0.88632,2.41125 0.7122,0.25715 0.91568,-0.11667 0.5664,-1.04163 -0.65241,-1.72989 1.10522,-4.13104 3.02375,-4.13104 0.75625,0 2.0725,0.64197 2.92441,1.42659 1.41244,1.30093 1.74851,1.2935 3.81493,-0.0844 2.25051,-1.50068 2.26508,-1.49342 2.13953,1.05882 -0.0734,1.4134 0.18775,4.09498 0.5727,5.95903 0.45627,2.21593 0.3755,3.38919 -0.23391,3.38919 -0.5129,0 -1.20213,-1.83017 -1.53169,-4.06703 -0.32936,-2.23686 -0.99645,-4.06702 -1.48282,-4.06702 -0.50767,0 -0.63773,0.99797 -0.30523,2.34591 0.54857,2.22582 -0.63982,4.88436 -2.184,4.88436 -0.38075,0 -1.13648,-1.29611 -1.67907,-2.88024 -1.49992,-4.37884 -2.93103,-2.07123 -1.96825,3.17366 0.43005,2.34254 0.4741,4.4526 0.0944,4.68902 -0.83806,0.52712 -1.7528,-1.73417 -1.77116,-4.37852 -0.007,-1.07778 -0.4248,-2.56965 -0.92722,-3.31527 -0.64507,-0.95794 -0.73737,0.20656 -0.31257,3.96863 0.43634,3.86609 0.32516,5.151 -0.40487,4.69152 -0.55382,-0.34799 -1.03421,-1.72722 -1.06851,-3.06485 -0.0315,-1.33764 -0.4269,-3.24546 -0.87268,-4.23962 -0.53913,-1.20161 -0.63248,-0.0651 -0.279,3.38919 0.36187,3.5433 0.21607,5.19674 -0.45837,5.19674 -0.54437,-3e-5 -0.99015,-0.4067 -0.99015,-0.90382 0,-0.49711 -0.55067,-0.90381 -1.22333,-0.90381 -2.03233,0 -3.59738,-2.51153 -2.44539,-3.92423 1.05498,-1.29355 0.49089,-2.40226 -1.22279,-2.40226 -0.74367,0 -0.85695,1.23249 -0.39334,4.29298 0.35767,2.36113 0.44368,4.6414 0.19195,5.06729 -0.81499,1.37892 -1.98398,-1.58697 -1.99793,-5.06729 -0.0105,-2.98699 -0.27062,-3.38919 -2.18138,-3.38919 -1.19228,0 -2.41476,0.4067 -2.71664,0.90382 -0.30208,0.49711 0.23181,0.90382 1.18473,0.90382 0.95344,0 1.94874,0.57077 2.2118,1.2685 0.63982,1.69758 -0.27376,5.05799 -1.37615,5.05799 -0.49612,0 -0.63773,-0.98698 -0.32306,-2.25947 0.34823,-1.41028 0.18041,-2.25946 -0.44473,-2.25946 -0.62199,0 -0.86429,1.1987 -0.63982,3.16324 0.43109,3.75992 -0.021,3.89098 -3.18308,0.9129 z m 1.23842,-2.77384 c 0,-0.77498 -0.40592,-1.15356 -0.90204,-0.84138 -0.49613,0.31223 -0.67234,0.94631 -0.39124,1.40902 0.7615,1.25359 1.29412,1.01985 1.29412,-0.56767 z m 12.68468,-1.98018 c 0.19614,-0.37275 0.0944,-1.69458 -0.23495,-2.93728 -0.5664,-2.16784 -0.60941,-2.14036 -1.0384,0.67783 -0.40278,2.64182 0.35977,3.99507 1.27283,2.25945 z M 174.37662,271.4 c -0.85485,-0.8021 -0.97337,-0.66269 -0.52759,0.62179 0.31571,0.91054 0.62094,2.13065 0.67758,2.71134 0.0524,0.58071 0.29369,0.30093 0.52759,-0.62179 0.23286,-0.92271 -0.0734,-2.14279 -0.67758,-2.71134 z m -1.43405,-1.49947 c 1.38402,-0.0181 -1.29685,-1.76192 -2.73677,-1.7799 -0.61045,-0.007 -1.11015,0.63973 -1.11015,1.43855 0,0.95302 0.48249,1.26377 1.40479,0.90382 0.77303,-0.30177 1.87154,-0.55486 2.44213,-0.56245 z m -84.912152,7.46541 c -1.217869,-1.37335 -1.452087,-2.62349 -1.014279,-5.41228 0.488784,-3.11388 0.838065,-3.56707 2.471715,-3.20636 1.545124,0.34127 1.652006,0.23836 0.569549,-0.54825 -2.811976,-2.04413 -4.215499,-1.15325 -4.837912,3.07102 -0.329352,2.23685 -1.009035,4.06702 -1.511035,4.06702 -0.588429,0 -0.667096,-1.3607 -0.222365,-3.84109 0.379699,-2.11259 0.657656,-4.73335 0.618847,-5.8239 -0.08391,-2.37172 2.531502,-5.03661 4.269307,-4.34922 0.680731,0.26942 2.126315,2.15 3.211394,4.17903 1.561697,2.92018 1.745148,3.92094 0.880021,4.80127 -0.601015,0.61166 -1.688612,0.95419 -2.416963,0.7611 -0.876874,-0.2325 -0.799256,-0.0128 0.229708,0.65008 1.612882,1.03907 2.176242,4.52646 0.731078,4.52646 -0.452073,0 -0.952395,0.65499 -1.110043,1.45548 -0.248588,1.25737 -0.50242,1.2124 -1.870805,-0.33038 z m 2.027719,-2.48076 c 0,-0.74562 -0.399628,-1.35568 -0.888412,-1.35568 -0.488784,0 -0.888412,0.61006 -0.888412,1.35568 0,0.74562 0.399628,1.35567 0.888412,1.35567 0.488784,0 0.888412,-0.61005 0.888412,-1.35567 z m -0.888412,-10.39351 c -0.522348,-0.99413 -1.336079,-1.80756 -1.807347,-1.80756 -1.255105,0 -1.046794,2.48273 0.252783,3.01657 2.128413,0.87404 2.498253,0.58636 1.55404,-1.20901 z m 101.684895,5.43058 c -0.68178,-3.15709 -2.22187,-3.6549 -2.22187,-0.71797 0,1.92441 -0.0629,1.93865 -1.55415,0.37116 -1.4824,-1.55496 -1.46194,-1.69397 0.44368,-3.01525 2.7309,-1.89311 2.54755,-3.5465 -0.19089,-1.7205 -2.49899,1.66638 -3.13944,1.79799 -3.13944,0.64506 0,-0.74348 5.69055,-4.60819 6.78518,-4.60819 0.25698,0 0.29893,0.50843 0.0944,1.12974 -0.20559,0.62136 0.12377,3.06048 0.73317,5.42029 0.60941,2.35983 0.77723,4.49857 0.37341,4.75275 -0.40382,0.25416 -0.99855,-0.76152 -1.32161,-2.25706 z M 75.828441,268.17902 c 0.464659,-1.64779 0.445779,-2.96761 -0.04196,-3.27661 -0.452073,-0.28458 -0.822332,-0.0865 -0.822332,0.43969 0,0.52637 -0.399628,0.95709 -0.888412,0.95709 -0.488784,0 -0.888412,-1.03107 -0.888412,-2.29126 0,-1.95747 0.242295,-2.15958 1.659348,-1.38748 2.212639,1.20512 3.16367,0.10749 1.213045,-1.39991 -2.577444,-1.99185 -3.623085,-1.4149 -4.374197,2.41336 -0.395433,2.01365 -1.11791,3.6138 -1.606379,3.55587 -0.488784,-0.0576 -0.751007,-0.79035 -0.584233,-1.6277 0.167823,-0.83732 0.367112,-1.92905 0.443681,-2.42612 0.07342,-0.49712 -0.560108,-0.78427 -1.414326,-0.63824 -1.742316,0.29771 -2.057193,-1.68717 -0.681781,-4.30167 0.635629,-1.20815 0.541229,-1.78689 -0.347183,-2.13373 -0.838065,-0.32739 -1.562011,0.7722 -2.319311,3.52479 -0.605211,2.2004 -1.481561,4.00072 -1.947269,4.00072 -0.465709,0 -0.680732,-0.50523 -0.479344,-1.12266 0.202436,-0.61742 -0.463611,-1.54457 -1.480093,-2.06021 -1.406774,-0.71381 -1.847834,-1.79405 -1.847834,-4.52599 0,-3.03896 0.271664,-3.56407 1.77609,-3.4293 1.750812,0.15681 1.751546,0.1408 0.05244,-1.12972 -2.020797,-1.51087 -3.160523,-1.64974 -3.160523,-0.38504 0,2.81841 -1.48775,5.4227 -3.097695,5.4227 -1.407089,0 -3.281041,-5.74829 -2.526362,-7.74959 0.636677,-1.688 1.189968,-1.62506 2.567374,0.29195 0.624091,0.86912 1.467715,1.24123 1.873951,0.82686 0.405922,-0.41429 -0.405921,-1.75633 -1.805983,-2.98223 -5.057235,-4.42984 -1.360623,-3.16207 4.956332,1.69978 3.557949,2.73837 7.578039,5.69258 8.933628,6.56493 l 2.464583,1.58608 -0.876874,-2.34639 c -0.564304,-1.51045 -0.569549,-2.53917 -0.02098,-2.88753 0.876874,-0.55176 1.207485,0.0971 2.082262,4.09231 0.31257,1.42582 1.858218,3.04559 4.190325,4.39017 2.032544,1.1719 3.299712,2.39201 2.815753,2.71136 -0.48354,0.31937 -1.244931,2.17617 -1.69113,4.12627 -0.445779,1.9501 -1.282796,3.70561 -1.859162,3.9011 -0.761496,0.25832 -0.834919,-0.39838 -0.270614,-2.40372 z m -4.419929,-8.65816 c 0,-0.74562 -0.399628,-1.35567 -0.888412,-1.35567 -0.488784,0 -0.888412,0.61005 -0.888412,1.35567 0,0.74562 0.399628,1.35567 0.888412,1.35567 0.488784,0 0.888412,-0.61005 0.888412,-1.35567 z m -7.082542,-2.77018 c 1.15116,-3.08125 1.093261,-3.51758 -0.309423,-2.3328 -0.859043,0.72512 -1.457331,0.70623 -2.220086,-0.0704 -0.737372,-0.75052 -1.044697,-0.76633 -1.044697,-0.0533 0,0.55507 0.499273,1.24646 1.110043,1.53643 0.888412,0.42176 0.888412,0.63269 0,1.05444 -1.549949,0.73612 -1.388105,2.18415 0.244392,2.18415 0.744714,0 1.743784,-1.04324 2.220086,-2.3183 z m -8.014483,-3.44564 c 0,-0.68478 -0.674438,-1.80318 -1.498448,-2.48541 -1.318983,-1.09189 -1.425235,-1.04216 -0.888412,0.41513 0.335646,0.91055 0.610455,2.02898 0.610455,2.48541 0,0.45645 0.399628,0.82985 0.888412,0.82985 0.488784,0 0.888412,-0.56031 0.888412,-1.24502 z m 145.198203,10.28285 c -0.67025,-2.15017 -2.22019,-2.41302 -2.22019,-0.3766 0,1.74758 -2.17216,1.1859 -2.33977,-0.60504 -0.0629,-0.70281 -0.16572,-1.81025 -0.22236,-2.46095 -0.0525,-0.65071 -0.50242,-0.93167 -0.99016,-0.62446 -0.48878,0.30722 -0.88841,0.21381 -0.88841,-0.20752 0,-0.42132 2.78733,-2.78386 6.19413,-5.25008 6.18301,-4.47596 6.19056,-4.48675 4.23155,-6.00382 -2.52039,-1.95175 -1.41328,-3.1888 1.19185,-1.33179 1.85172,1.31992 2.1968,1.20914 6.04802,-1.94133 2.24642,-1.83762 4.80015,-4.2377 5.67493,-5.33352 1.53233,-1.91949 4.18938,-1.96621 4.18938,-0.0737 0,0.49712 -0.59996,0.66973 -1.33209,0.38355 -1.72585,-0.674 -1.68421,-0.30348 0.44368,3.94196 2.11992,4.22914 2.19261,4.87495 0.472,4.20319 -0.71744,-0.27999 -1.56306,-0.0822 -1.88024,0.44033 -0.31677,0.5222 -1.50873,0.76804 -2.64814,0.54643 -2.52049,-0.49039 -3.60997,1.63081 -1.46499,2.85246 0.83072,0.47299 1.19731,1.17798 0.81499,1.56674 -0.78142,0.79547 -5.28736,-1.70794 -5.77971,-3.21123 -0.17622,-0.5364 0.31362,-0.97523 1.08665,-0.97523 0.77303,0 1.40615,-0.4067 1.40615,-0.90382 0,-1.30841 -1.39147,-1.10882 -2.59979,0.37287 -0.8045,0.98633 -0.72793,2.03917 0.33565,4.62929 1.55876,3.79672 1.70466,4.9394 0.63038,4.9394 -0.41012,0 -1.27346,-1.62681 -1.91821,-3.61512 -0.64507,-1.98833 -1.508,-3.61514 -1.91832,-3.61514 -1.11854,0 -0.9031,2.10756 0.58633,5.73518 1.56998,3.82402 1.61183,4.20643 0.46046,4.20643 -0.47934,0 -1.12189,-1.01675 -1.42838,-2.25945 -0.66185,-2.68369 -2.14079,-3.01548 -2.14079,-0.48025 0,1.21019 -0.42585,1.61282 -1.33209,1.25897 -0.73213,-0.28608 -1.3321,-1.09952 -1.3321,-1.80756 0,-0.70805 0.59997,-1.52145 1.3321,-1.80757 0.73317,-0.28608 1.33209,-1.1792 1.33209,-1.98461 0,-1.13387 -0.50662,-0.94908 -2.24369,0.81896 -2.19722,2.23611 -2.21568,2.36435 -0.88841,6.19363 1.59589,4.6034 1.594,4.58675 0.52759,4.58675 -0.45522,0 -1.08182,-0.8134 -1.39188,-1.80757 z m -1.3321,-4.46558 c 0,-0.46777 -0.39963,-1.10181 -0.88841,-1.40902 -0.48878,-0.30721 -0.88841,0.0758 -0.88841,0.85044 0,0.77498 0.39963,1.40902 0.88841,1.40902 0.48878,0 0.88841,-0.38268 0.88841,-0.85044 z m 15.98513,-12.20108 c 0,-0.21914 -0.39963,-0.64987 -0.88842,-0.95708 -0.48878,-0.30722 -0.88841,-0.12789 -0.88841,0.39858 0,0.52637 0.39963,0.95709 0.88841,0.95709 0.48879,0 0.88842,-0.17933 0.88842,-0.39859 z m 3.53864,-2.14019 c -0.007,-0.84052 -0.38494,-2.12558 -0.83806,-2.85562 -0.58423,-0.94 -0.77408,-0.37318 -0.65241,1.94219 0.16677,3.16691 1.51838,3.99481 1.491,0.91343 z m -98.56139,17.36571 c -8.60816,-1.59163 -19.3399,-4.64156 -25.753773,-7.31911 C 41.587238,232.36844 17.369567,169.28603 42.728538,117.66471 56.307396,90.023497 79.795353,71.064906 110.84656,62.682489 c 6.12165,-1.652589 9.68275,-1.943707 24.05845,-1.966828 17.25606,-0.02775 20.53396,0.402219 32.41424,4.252379 44.88012,14.544621 74.86366,59.51773 70.21507,105.31764 -2.42168,23.85962 -11.18738,42.88962 -27.85712,60.47648 -14.11159,14.88807 -29.13257,23.64235 -50.35051,29.34448 -4.97291,1.33641 -10.37313,1.87363 -21.3135,2.12028 -8.05916,0.18168 -15.6521,0.1456 -16.87322,-0.0801 z m 33.74644,-3.07107 c 32.0058,-7.00746 57.08357,-26.15747 71.02125,-54.23371 7.5213,-15.15078 10.27569,-29.04334 9.54241,-48.12963 -0.60836,-15.83153 -2.86799,-24.78137 -9.86903,-39.08547 C 209.62056,85.016861 177.42271,64.044014 140.67738,62.322755 110.5321,60.910665 83.450848,71.341687 62.934929,92.26716 c -12.215088,12.45898 -20.602243,27.11235 -24.910465,43.52161 -15.227717,58.00041 22.429309,114.53414 82.689446,124.13982 6.74228,1.07474 27.76461,0.55005 34.1725,-0.85291 z m -36.83228,-7.62088 0.6178,-6.71038 -6.53649,-1.92485 c -3.59508,-1.05872 -6.99538,-2.07738 -7.55622,-2.26379 -0.56116,-0.18638 -2.28271,2.07263 -3.82636,5.0201 -1.54366,2.94747 -3.196085,5.35903 -3.672177,5.35903 -3.062767,0 -18.118046,-9.67137 -22.783416,-14.63588 l -2.883615,-3.06855 3.993658,-3.98892 c 2.196591,-2.19391 3.993764,-4.42437 3.993764,-4.95659 0,-0.53224 -2.55762,-3.54746 -5.683634,-6.70054 l -5.683739,-5.73289 -4.212668,3.2736 c -2.317003,1.80046 -4.687606,3.27358 -5.267958,3.27358 -1.210632,0 -7.838164,-8.80697 -10.280511,-13.66124 -0.904145,-1.79725 -2.120756,-5.19393 -2.703206,-7.54819 -1.231819,-4.97859 -0.878972,-5.41605 5.09594,-6.32798 2.105757,-0.32141 4.019147,-0.89806 4.252106,-1.28159 0.232854,-0.38354 -0.157334,-2.66151 -0.867434,-5.06224 -0.710101,-2.40072 -1.290768,-6.53717 -1.290768,-9.19211 v -4.82717 h -6.660468 -6.660467 l 0.0063,-7.00432 c 0.0035,-3.85238 0.258028,-9.72119 0.566402,-13.04181 l 0.560109,-6.0375 5.956241,0.50823 5.956136,0.50822 0.532838,-4.57935 c 0.292641,-2.51863 1.35412,-6.30905 2.357806,-8.42315 1.00379,-2.11409 1.824758,-4.10652 1.824758,-4.4276 0,-0.3211 -2.197954,-2.1244 -4.884273,-4.00733 -2.686424,-1.88295 -4.884378,-3.79808 -4.884378,-4.25585 0,-0.45773 1.598512,-3.05181 3.552284,-5.76452 1.953668,-2.71274 5.172509,-7.18176 7.152923,-9.9312 l 3.600743,-4.998972 4.138511,3.600162 4.138616,3.60015 5.415222,-5.29208 c 2.978435,-2.910641 7.257078,-6.480796 9.508211,-7.933663 L 89.0296,90.376037 85.905159,84.73375 c -2.991337,-5.402056 -3.05448,-5.697582 -1.484288,-6.94063 2.760895,-2.185582 15.674239,-8.3847 18.730499,-8.991648 2.82907,-0.561804 2.92473,-0.470536 5.26544,5.022051 l 2.38392,5.594283 5.921,-0.593721 c 3.2566,-0.326536 7.05097,-0.901364 8.43205,-1.277196 2.46909,-0.672073 2.50738,-0.784263 2.29529,-6.73732 l -0.21607,-6.0539 h 7.31497 c 7.45155,0 17.84387,1.420234 20.44554,2.794152 1.17697,0.621477 1.30577,1.468431 0.70486,4.631862 -1.24178,6.535432 -1.22731,6.561072 5.18153,9.183716 l 5.99442,2.453067 4.71435,-5.217054 4.71435,-5.217065 4.75862,2.535604 c 4.86854,2.594111 15.56273,11.780112 15.56273,13.367917 0,0.48516 -1.39282,2.738612 -3.09517,5.007586 l -3.09518,4.125425 2.61678,3.276571 c 1.43929,1.80211 3.93104,4.78933 5.53742,6.63824 l 2.92053,3.36166 5.31537,-3.23725 5.31547,-3.23726 3.32258,3.926 c 3.87304,4.57662 9.05362,14.80174 8.39041,16.56064 -0.25174,0.66695 -2.83484,2.54287 -5.7408,4.1687 l -5.28348,2.95605 2.17477,4.40652 c 1.64089,3.32474 2.11415,5.56277 1.92776,9.11637 l -0.24754,4.70985 6.60435,0.7358 c 3.63242,0.40468 6.76117,0.89528 6.9528,1.09034 0.19195,0.19502 0.0524,6.2879 -0.29894,13.53978 l -0.64716,13.18525 -4.12393,-0.66535 c -8.31531,-1.34155 -8.1863,-1.40761 -9.94875,5.0949 -0.87478,3.22695 -1.52048,5.92398 -1.4351,5.99342 0.0839,0.0694 2.63629,1.39178 5.66843,2.93856 l 5.51319,2.81233 -1.28993,3.7208 c -1.87615,5.41162 -6.87937,13.40298 -10.84943,17.32924 l -3.45201,3.41398 -4.10264,-3.18805 c -2.25648,-1.75342 -4.22651,-3.1848 -4.37787,-3.18084 -0.15104,0.004 -3.48693,3.1559 -7.4122,7.00432 l -7.13688,6.99713 2.91854,4.93082 c 1.60523,2.71197 2.91865,5.21922 2.91865,5.57168 0,1.24432 -8.8129,7.20336 -14.60782,9.87739 -3.22807,1.4896 -7.57825,2.94675 -9.66712,3.23814 l -3.79793,0.52977 -1.51345,-5.54005 -1.51355,-5.54005 -2.75523,1.45005 c -1.51544,0.7975 -4.9083,1.67619 -7.53976,1.95259 l -4.78442,0.50256 v 6.65194 6.65192 H 131.72036 117.4356 Z m 27.95162,-13.17285 c 2.75125,-2.79998 2.15055,-3.61513 -2.66418,-3.61513 -2.44214,0 -4.44028,0.21765 -4.44028,0.48366 0,1.30242 3.01766,4.93901 4.09834,4.93901 0.67653,0 2.02929,-0.8134 3.00612,-1.80756 z m 1.12609,-7.30529 c -0.39123,-1.524 -1.29381,-1.73255 -7.49559,-1.73255 h -7.05045 l 2.31879,2.03351 c 1.94695,1.70736 3.14919,1.98525 7.4957,1.73255 4.59646,-0.26719 5.12688,-0.49519 4.73155,-2.03351 z m -1.12609,-4.89578 c 0,-1.08757 -1.36115,-1.35766 -6.88252,-1.36564 -3.78534,-0.005 -8.48092,-0.24669 -10.43469,-0.53607 l -3.55229,-0.52605 2.66419,1.88576 c 2.20414,1.56009 4.00624,1.88679 10.4348,1.89173 6.31769,0.004 7.77051,-0.24755 7.77051,-1.34973 z m -0.26432,-5.7988 0.18041,-2.63196 -7.28477,-0.59671 c -4.00666,-0.32814 -9.98829,-0.46478 -13.29251,-0.30359 l -6.00785,0.29313 2.01157,2.92168 2.01146,2.92167 11.10075,0.0138 11.10085,0.0138 0.18041,-2.63196 z m -12.04894,-7.30607 c -9.59055,-0.2485 -17.59423,-0.36005 -17.78597,-0.24776 -0.19195,0.11231 0.0839,0.7372 0.6178,1.38872 0.70695,0.86635 4.85616,1.25741 15.44568,1.4556 7.96371,0.14902 14.62806,0.4209 14.80963,0.60408 0.18145,0.18317 1.23454,-0.36027 2.34018,-1.20781 1.92231,-1.47347 1.24713,-1.56069 -15.42701,-1.99281 z m 19.4172,-3.16323 c 0,-1.11664 -1.60501,-1.35633 -9.1026,-1.35935 -5.00647,-0.002 -14.24113,-0.27039 -20.52159,-0.59629 l -11.41897,-0.59265 1.19783,1.952 c 1.16784,1.90299 1.68305,1.952 20.52158,1.952 16.58467,0 19.32375,-0.19214 19.32375,-1.35567 z m 0.88841,-4.06702 c 0,-0.53032 -3.06098,-0.90383 -7.40675,-0.90383 -4.07358,0 -14.07603,-0.26771 -22.2275,-0.59489 -13.57918,-0.54504 -14.77365,-0.46926 -14.25582,0.90382 0.50452,1.33901 2.87271,1.49865 22.22751,1.49865 13.84968,0 21.66256,-0.326 21.66256,-0.90382 z m 51.35704,-2.17243 c 0.16153,-1.43487 -0.34719,-4.31748 -1.13144,-6.40581 l -1.42482,-3.79696 -19.29406,-0.59542 c -27.32439,-0.8433 -82.2614,-0.81127 -82.79046,0.048 -0.24439,0.39677 5.95005,0.82034 13.76493,0.94129 7.81499,0.12094 25.79825,0.59276 39.96281,1.04845 29.23599,0.94054 32.64794,1.59783 42.28212,8.1452 6.26766,4.25947 8.20549,4.39757 8.63092,0.61508 z m -50.69686,-2.12055 c 0.29474,-0.88536 -4.82606,-1.12973 -23.67582,-1.12973 -21.17158,0 -25.2266,0.32248 -23.67791,1.88287 0.20559,0.20709 10.85961,0.3766 23.67582,0.3766 17.84921,0 23.39009,-0.26441 23.67791,-1.12972 z m 3.56812,-3.64681 c 1.92283,-1.50624 0.77303,-1.58606 -27.04653,-1.87814 -26.44038,-0.27765 -28.94965,-0.17614 -27.88639,1.12761 1.00694,1.23524 4.67292,1.46765 26.60254,1.68671 13.98877,0.13973 25.63399,0.3402 25.87817,0.44545 0.2444,0.10568 1.34773,-0.51643 2.45221,-1.38167 z m 40.72325,-10.81373 c -6.2064,-8.40477 -7.01237,-10.68293 -7.60656,-21.50183 -0.4762,-8.6778 -0.8601,-10.50393 -2.9454,-14.00863 -3.49428,-5.87415 -5.05115,-7.40928 -9.84984,-9.7121 l -4.30696,-2.06693 0.55277,11.55665 c 0.30418,6.35615 0.64507,14.81026 0.7573,18.7869 0.18146,6.42616 0.79191,8.52617 2.49248,8.57211 0.28215,0.007 0.3367,-1.20627 0.12167,-2.69751 -0.21502,-1.49124 -0.10698,-2.71135 0.2402,-2.71135 0.34718,0 3.78954,2.26487 7.64926,5.03306 6.96507,4.99527 7.01772,5.06312 7.01772,9.03783 v 4.00477 h 4.52345 4.52346 z m -98.24504,1.80758 c -0.005,-0.86988 -0.25803,-3.10676 -0.56011,-4.97082 -0.548573,-3.37567 -0.567453,-3.38919 -4.874625,-3.38919 -3.988414,0 -4.32406,0.17069 -4.32406,2.19855 0,1.34187 0.637727,2.40443 1.635643,2.72689 0.89995,0.29056 2.567794,1.5381 3.706996,2.77226 2.41518,2.61631 4.430206,2.91851 4.416256,0.66225 z m 5.33813,-3.3892 c 0,-4.69967 -0.12063,-4.97081 -2.2202,-4.97081 -2.09904,0 -2.22008,0.27114 -2.22008,4.97081 0,4.69967 0.12062,4.97081 2.22008,4.97081 2.09905,0 2.2202,-0.27114 2.2202,-4.97081 z m 40.94719,-1.12973 c 0.0524,-3.3553 0.35243,-8.42253 0.66605,-11.26054 l 0.56954,-5.16 7.54846,4.89813 7.54857,4.89813 0.27586,-3.12731 c 0.15104,-1.72002 0.55067,-3.11996 0.88841,-3.11095 0.33669,0.009 2.69083,1.18265 5.23114,2.60808 l 4.6187,2.59171 -0.43215,-12.32374 c -0.2381,-6.77808 -0.65451,-15.30291 -0.92617,-18.94409 l -0.49403,-6.62033 -4.13631,-1.81496 -4.1362,-1.81495 -6.5174,3.27089 -6.5175,3.27088 -4.02911,-2.29181 c -2.2161,-1.2605 -4.38825,-2.29182 -4.82722,-2.29182 -0.43843,0 -3.32897,1.62681 -6.42247,3.61514 -3.0936,1.98831 -5.98897,3.61513 -6.43433,3.61513 -0.44578,0 -4.55712,-3.8298 -9.13743,-8.51067 l -8.32789,-8.51067 -3.19943,2.1527 -3.19934,2.15267 0.77304,23.30391 c 0.51186,15.4226 1.11235,23.55645 1.77619,24.05057 0.63039,0.46927 0.67339,0.88846 0.11538,1.12837 -0.49403,0.21232 -0.7531,2.58811 -0.58423,5.3539 l 0.30418,4.97217 h 19.45527 19.45518 z M 88.604267,180.5995 c -1.554878,-0.37522 -1.583093,-1.96725 -0.03147,-1.96725 0.827577,0 1.420096,-2.40075 1.99877,-8.09359 l 0.823381,-8.09358 -2.664922,-0.26645 c -1.465617,-0.14656 -4.70271,-0.13065 -7.193515,0.0352 l -4.528593,0.30165 1.64246,3.27859 c 0.903097,1.80322 1.648335,4.71773 1.655468,6.47667 0.02098,4.29795 1.613301,7.23778 5.301522,9.76726 2.863687,1.96399 3.106715,1.99599 3.640077,0.47907 0.355575,-1.00971 0.11328,-1.73617 -0.638776,-1.91768 z m 11.221997,-3.26959 c 0,-2.28742 -1.749553,-2.50799 -4.690123,-0.59126 l -2.858337,1.86318 3.77423,0.015 c 2.701108,0.0107 3.77423,-0.35504 3.77423,-1.28711 z m 5.867396,-0.12723 c -0.29683,-0.7863 -0.53913,-2.82917 -0.53913,-4.53976 0,-3.08924 -0.0105,-3.10045 -2.16648,-1.66544 -2.28879,1.52617 -2.22995,3.15128 0.21921,6.05317 1.66365,1.97142 3.20815,2.06584 2.48651,0.152 z m -9.419576,-3.49881 c 0,-0.15756 -0.958687,-0.9257 -2.13051,-1.70709 -2.111001,-1.40761 -2.133553,-1.38858 -2.457451,2.06716 l -0.327254,3.48787 2.45745,-1.78077 c 1.351498,-0.9794 2.457346,-1.90965 2.457346,-2.06717 z m 3.55218,-4.65802 c 0,-3.56572 0.112231,-3.52261 -3.985058,-1.53427 l -3.157376,1.53227 2.436682,1.97735 c 3.13063,2.54045 4.705752,1.87925 4.705752,-1.97535 z m 3.450226,-1.34228 c -1.80997,-1.16656 -2.18149,-1.01067 -2.18149,0.91524 0,1.4318 0.29894,1.57305 1.70571,0.80668 1.3816,-0.75246 1.47202,-1.07978 0.4762,-1.72187 z m -6.303319,-3.41681 c -0.628286,-0.19758 -1.842484,-0.72533 -2.697227,-1.17273 -1.317409,-0.68958 -1.554144,-0.38781 -1.554144,1.98078 v 2.79425 l 2.697227,-1.6215 c 1.580996,-0.95047 2.224177,-1.77019 1.554144,-1.9808 z m 8.181469,0.32921 c 0,-2.04688 -0.17412,-2.15663 -1.79109,-1.12972 -1.66795,1.05913 -1.68683,1.21511 -0.27481,2.26711 2.02048,1.50487 2.06537,1.48016 2.06537,-1.13739 z m -5.772372,-3.97783 c 0,-2.16687 -0.346135,-3.30297 -0.895755,-2.9373 -0.492979,0.32793 -1.785634,1.1989 -2.873546,1.93542 l -1.978211,1.3391 2.873651,1.5603 c 1.580471,0.85813 2.873546,1.57735 2.873546,1.59819 0,0.0214 0,-1.55224 0,-3.49571 z m 3.944882,-0.5965 c -1.58991,-1.94962 -2.61279,-1.55867 -2.61279,0.99861 0,2.0351 0.20454,2.17962 1.83347,1.29266 1.46645,-0.79868 1.62242,-1.25738 0.77932,-2.29127 z M 79.413031,156.2636 c 0.0066,-2.36114 0.263272,-5.24757 0.570598,-6.41431 0.520251,-1.97627 0.427948,-2.03867 -1.344261,-0.91236 -1.58666,1.00843 -1.902271,2.07277 -1.902271,6.41432 0,4.02441 0.302081,5.2053 1.332093,5.2053 0.995399,0 1.335135,-1.08501 1.344261,-4.29297 z m 5.316207,-3.39684 c 0,-7.46358 -0.05244,-7.65662 -1.776089,-6.56099 -1.51114,0.96051 -1.776195,2.10765 -1.776195,7.68983 0,5.95845 0.163627,6.56097 1.776195,6.56097 1.636901,0 1.776089,-0.60248 1.776089,-7.68981 z m 7.104465,6.88178 c 0,-0.44439 0.419557,-4.96593 0.931416,-10.04783 0.512909,-5.0819 0.749958,-9.42448 0.528642,-9.65015 -0.222365,-0.22566 -1.835038,0.53384 -3.584905,1.68784 l -3.181711,2.09818 -0.01049,8.36 -0.01049,8.35999 h 2.664187 c 1.465303,0 2.664188,-0.36358 2.664188,-0.80807 z m -16.421777,-8.03207 c -0.116427,-0.13984 -1.445794,0.46711 -2.955255,1.34878 l -2.744323,1.60296 2.402069,2.55806 2.402069,2.55808 0.552766,-3.90687 c 0.304179,-2.14877 0.458366,-4.02123 0.341939,-4.16101 z m 29.582444,2.58053 c -0.28006,-1.71836 -0.31047,-1.71836 -2.38025,0 l -2.09653,1.74065 2.09653,1.74066 c 2.06967,1.71836 2.10019,1.71836 2.38025,0 0.15628,-0.9573 0.15628,-2.52396 0,-3.48131 z m -8.493725,2.87037 c 1.2743,-1.45009 1.211891,-1.71664 -0.749958,-3.20541 l -2.140265,-1.62383 v 3.20544 c 0,3.55105 0.801354,4.00125 2.890748,1.6238 z m 2.437627,-5.62925 c 0,-2.57185 -0.10489,-2.64414 -2.311655,-1.62012 l -2.311549,1.07189 1.965939,1.62009 c 2.572199,2.11969 2.657265,2.08538 2.657265,-1.07186 z m -7.923859,-12.26507 c 11.066237,-7.18314 20.481617,-13.06025 20.923097,-13.06025 0.44159,0 4.38269,3.66032 8.75825,8.13405 4.37557,4.47373 8.32035,8.13405 8.76612,8.13405 0.44578,0 3.34167,-1.62681 6.43528,-3.61513 3.09349,-1.98832 6.04193,-3.61513 6.55201,-3.61513 0.50976,0 2.57073,1.05572 4.57925,2.34603 l 3.65172,2.34606 6.86438,-3.27831 6.86447,-3.2783 8.55949,4.04309 c 4.70775,2.22369 8.55414,3.76165 8.54753,3.41766 -0.0524,-2.47413 -3.42883,-11.48735 -4.58848,-12.23178 -0.99226,-0.63674 -3.40198,-0.54173 -7.8324,0.30903 -7.56944,1.45355 -8.77598,0.95943 -10.61993,-4.34932 -1.16375,-3.35036 -1.14078,-4.16818 0.22656,-8.04995 2.1711,-6.16442 2.03967,-6.58018 -2.07964,-6.58018 -4.64618,0 -7.95218,3.10153 -7.95218,7.46032 0,6.04041 -1.89304,6.04289 -11.63075,0.015 -3.12759,-1.93599 -7.56713,-4.4376 -9.86578,-5.5591 -4.3443,-2.11964 -9.58562,-7.36278 -9.58562,-9.58896 0,-0.78245 -1.29979,-1.49831 -3.33023,-1.83423 -1.83168,-0.30305 -5.09049,-1.099802 -7.24177,-1.770615 l -3.91153,-1.219659 -6.225804,5.453274 c -9.524364,8.34245 -13.34936,9.36938 -18.27496,4.90649 l -2.129776,-1.92963 0.568499,2.25946 c 2.669956,10.6058 2.766664,12.53952 0.829674,16.59679 -1.036305,2.17026 -4.312941,6.89764 -7.282041,10.50527 -4.587647,5.57439 -5.398231,7.09032 -5.398231,10.09556 0,4.26176 2.321409,8.3188 4.31462,7.54042 0.763594,-0.29803 10.441725,-6.41902 21.507962,-13.60213 z m 12.248447,12.83943 c 0.76569,-0.93926 0.52025,-1.43137 -1.08445,-2.17569 -1.89871,-0.88043 -2.03979,-0.77763 -1.66565,1.21384 0.46047,2.45172 1.29665,2.74415 2.7501,0.96189 z m -5.358692,-4.78369 c 0.163628,-0.10035 -0.534935,-0.63653 -1.554039,-1.19133 -1.661551,-0.90499 -1.852239,-0.76162 -1.852239,1.39312 0,2.14621 0.165725,2.27302 1.554144,1.19132 0.854847,-0.66578 1.688192,-1.29273 1.852134,-1.39311 z m 6.584002,0.14517 c -0.35872,-1.91099 -0.67548,-2.09818 -2.17037,-1.28393 -1.6884,0.91961 -1.6928,0.99744 -0.12272,2.2084 2.3234,1.79193 2.7695,1.61206 2.29309,-0.92442 z m -5.948268,-6.60356 c -0.292641,-0.29783 -1.221855,0.171 -2.064955,1.04162 -1.452611,1.50008 -1.439919,1.65378 0.243343,2.9317 1.655048,1.25672 1.795809,1.18571 2.064955,-1.04163 0.159432,-1.31466 0.05245,-2.63391 -0.243343,-2.93169 z m 4.576218,2.9617 c 0.10488,-0.0352 -0.59997,-0.56042 -1.55404,-1.16718 -1.55719,-0.98964 -1.735816,-0.85845 -1.735816,1.2746 0,2.12322 0.166774,2.24819 1.554146,1.16718 0.85485,-0.66577 1.63585,-1.23937 1.73571,-1.2746 z m 1.15053,-6.01024 c 0,-4.45855 -0.0734,-4.59456 -1.62621,-3.16128 -0.8947,0.82376 -1.81196,1.30869 -2.03894,1.07765 -0.22656,-0.23099 -0.39438,0.61433 -0.37236,1.87866 0.0315,1.83134 2.37858,4.86396 3.7628,4.86396 0.15104,0 0.27481,-2.09655 0.27481,-4.65899 z m -5.912717,-0.26581 c 0.329353,-0.8736 0.06293,-1.14298 -0.787718,-0.80902 -0.704856,0.2753 -1.06064,0.86464 -0.790865,1.30964 0.680731,1.1208 1.005888,1.01761 1.578374,-0.50052 z M 222.37887,243.70457 c 0,-0.49711 0.39963,-0.90382 0.88841,-0.90382 0.48879,0 0.88842,0.40671 0.88842,0.90382 0,0.49712 -0.39963,0.90383 -0.88842,0.90383 -0.48878,0 -0.88841,-0.40671 -0.88841,-0.90383 z M 26.471332,222.55329 c -0.263272,-0.69738 0.356624,-2.93428 1.378035,-4.97081 2.057298,-4.10403 1.618127,-4.67393 -1.387265,-1.8005 -1.793921,1.71517 -3.897265,1.73939 -3.897265,0.0449 0,-0.36166 2.039466,-2.20709 4.53216,-4.10099 5.503644,-4.18159 7.114533,-3.48863 4.912173,2.11313 -1.908565,4.85435 -1.858533,5.01648 0.872679,2.82998 2.201206,-1.76213 3.891916,-1.80625 3.891916,-0.10136 0,0.79985 -8.229716,7.2539 -9.24945,7.2539 -0.315716,0 -0.789816,-0.57067 -1.053088,-1.26806 z m 210.202898,-1.26994 c -3.03466,-1.6563 -7.22467,-7.67046 -6.12417,-8.79039 0.3304,-0.33583 1.91717,0.9161 3.52701,2.78216 1.60994,1.866 4.23217,3.94769 5.82722,4.62595 1.59506,0.67826 2.90009,1.63442 2.90009,2.12483 0,1.39458 -2.84617,1.04985 -6.13015,-0.74252 z m 4.94668,-8.36563 c -1.01847,-1.48009 -1.13836,-2.54822 -0.48249,-4.30414 0.73528,-1.96678 0.54962,-2.58383 -1.17297,-3.90858 -1.51933,-1.16836 -1.78795,-1.83621 -1.04365,-2.59582 0.74471,-0.76057 2.26435,-0.29729 5.92949,1.80774 l 4.92801,2.83046 -1.66134,3.79212 c -1.9265,4.3972 -4.46702,5.32721 -6.49663,2.37822 z m 4.15781,-3.07607 c 0.65556,-1.73751 -1.18116,-2.87508 -2.12705,-1.31762 -0.78142,1.28715 -0.32725,2.64435 0.88632,2.64435 0.40697,0 0.96603,-0.59703 1.24084,-1.32673 z m -10.9669,1.77861 c 0,-0.74562 0.59891,-1.35567 1.33209,-1.35567 0.73318,0 1.33209,0.61005 1.33209,1.35567 0,0.74563 -0.59996,1.35568 -1.33209,1.35568 -0.73318,0 -1.33209,-0.61005 -1.33209,-1.35568 z M 19.656048,207.90684 c -1.334611,-1.35827 -0.524447,-3.33562 3.350582,-8.1767 3.055319,-3.81711 4.122253,-4.64973 4.539607,-3.54268 0.299983,0.79601 0.07342,2.02487 -0.50137,2.73093 -1.29318,1.58576 0.562206,5.47161 2.612162,5.47161 0.725833,0 1.454604,0.71178 1.619175,1.58162 0.247539,1.30798 -0.365015,1.58375 -3.540117,1.59396 -2.111631,0.007 -4.648797,0.23367 -5.638008,0.50427 -0.989105,0.27049 -2.088345,0.19716 -2.442241,-0.163 z m 5.572976,-4.53129 c 0,-1.20094 -0.241246,-1.2627 -1.332094,-0.34127 -0.733176,0.61882 -1.332093,1.27866 -1.332093,1.46633 0,0.18766 0.599966,0.34127 1.332093,0.34127 0.733176,0 1.332094,-0.6599 1.332094,-1.46633 z m -9.821935,-7.79744 c -1.265594,-5.36892 -1.26916,-5.50128 -0.160481,-5.87749 0.443682,-0.15072 1.173606,0.53608 1.620644,1.5261 0.802403,1.77783 0.859043,1.7791 4.514958,0.10249 2.03611,-0.9336 3.934396,-1.4611 4.218331,-1.17213 1.381287,1.40572 0.143699,2.93084 -3.540222,4.36262 -3.545571,1.37803 -3.990826,1.84282 -3.535292,3.68989 0.362917,1.47168 0.138454,2.11327 -0.739469,2.11327 -0.78667,0 -1.680956,-1.78428 -2.378889,-4.74487 z m 225.177101,3.84108 c -0.64717,-1.06639 0.19194,-2.71135 1.38454,-2.71135 0.45941,0 0.83596,0.8134 0.83596,1.80757 0,1.90614 -1.29202,2.43211 -2.22019,0.90381 z m 6.21647,-3.46165 c -4.6659,-1.58583 -6.39216,-4.50018 -2.31994,-3.91667 1.9265,0.27605 3.60357,-1.01996 3.6384,-2.81162 0.007,-0.38514 -0.98596,-1.08677 -2.20656,-1.55924 -2.25816,-0.87372 -3.13587,-3.6749 -1.11004,-3.54269 0.61045,0.0395 3.10818,0.75161 5.55032,1.58163 4.91049,1.66899 6.29776,4.41837 1.99814,3.96036 -2.06212,-0.21968 -2.44214,0.0801 -2.44214,1.9281 0,1.42817 0.61675,2.35244 1.77609,2.66095 1.91476,0.5096 2.50172,3.40062 0.66605,3.28081 -0.61046,-0.0395 -3.10818,-0.7516 -5.55032,-1.58163 z M 12.931283,186.2676 c 0.211876,-1.11734 1.731721,-2.01804 4.750329,-2.81434 5.715835,-1.50786 6.659419,-1.49158 6.659419,0.11486 0,1.21834 -1.518377,1.83297 -9.190606,3.72032 -2.134287,0.52498 -2.481365,0.36528 -2.219142,-1.02092 z m 239.197747,-3.17782 c -1.55267,-1.01216 -4.23899,-1.73873 -6.43852,-1.74151 -3.77664,-0.004 -5.01266,-1.13532 -2.36955,-2.16751 3.19681,-1.24845 7.39406,-0.50203 10.07199,1.79121 4.41657,3.78207 3.54054,5.2498 -1.26392,2.11781 z M 12.97628,180.20874 c -2.493532,-3.0578 -1.930592,-8.7923 1.062948,-10.8265 1.798956,-1.22248 5.571088,-0.70869 7.0559,0.96114 1.986288,2.23363 1.898915,7.61342 -0.154187,9.50442 -1.915488,1.7642 -6.645364,1.97856 -7.964556,0.36101 z m 6.416915,-2.9968 c 2.986722,-3.03962 0.34089,-6.84668 -3.515049,-5.0585 -2.34417,1.08694 -2.873546,3.61803 -1.128188,5.3942 1.447261,1.47294 2.974554,1.36252 4.643237,-0.33572 z m 226.963365,-6.49473 c 0,-0.94139 0.99854,-2.66676 2.22019,-3.83422 2.82099,-2.69711 2.80442,-3.61514 -0.0629,-3.61514 -1.6927,0 -2.20812,-0.40745 -1.98796,-1.57123 0.36816,-1.94324 2.44203,-2.39306 7.48574,-1.62334 3.85226,0.58786 3.89202,0.63098 3.89202,4.21316 0,1.99053 -0.41327,4.40584 -0.91883,5.36731 -1.08792,2.06868 -4.24854,2.32174 -4.97385,0.39817 -0.43005,-1.14017 -0.90834,-1.06042 -3.08039,0.51345 -2.47077,1.79047 -2.57136,1.79642 -2.57136,0.15179 z m 8.88066,-5.1899 c 0,-1.2427 -0.39963,-2.25946 -0.88842,-2.25946 -0.48878,0 -0.88841,1.01676 -0.88841,2.25946 0,1.24271 0.39963,2.25947 0.88841,2.25947 0.48879,0 0.88842,-1.01676 0.88842,-2.25947 z M 12.574135,165.3562 c -2.504965,-0.6662 -1.799795,-2.75705 1.760251,-5.21901 l 3.314396,-2.29204 h -3.314396 c -2.787222,0 -3.314291,-0.3054 -3.314291,-1.92053 0,-1.66899 0.362917,-1.84655 2.77516,-1.35567 1.526349,0.31063 4.123931,0.56489 5.772371,0.56489 4.041698,0 3.912369,2.01333 -0.316766,4.93824 -3.096855,2.14159 -3.169753,2.29295 -1.110147,2.30587 2.822674,0.0181 4.826269,1.30479 4.041802,2.59648 -0.593673,0.97811 -6.485512,1.21227 -9.608066,0.38183 z M 246.45788,154.13719 c -1.31521,-3.83938 -1.27818,-4.13212 0.78667,-6.23365 1.24986,-1.272 2.96018,-1.80757 5.77237,-1.80757 5.50469,0 5.35785,2.14073 -0.22236,3.23772 -3.35468,0.65948 -4.21834,1.1994 -4.21834,2.63688 0,1.6191 0.49403,1.77645 4.7411,1.50924 4.19694,-0.26408 4.70565,-0.10845 4.43168,1.35568 -0.24859,1.32896 -1.29129,1.70666 -5.30593,1.92196 -4.90829,0.26324 -5.01381,0.21702 -5.98571,-2.62026 z M 17.236462,150.86293 c -6.750148,-4.80715 -6.581486,-6.53309 0.837017,-8.5707 3.146887,-0.86433 5.853869,-1.43703 6.015294,-1.27269 0.689122,0.70089 -0.932466,3.26886 -2.063382,3.26886 -1.490266,0 -1.692283,4.59792 -0.26537,6.04973 0.533887,0.54366 0.83387,1.66684 0.666047,2.49587 -0.251734,1.24149 -1.166788,0.8939 -5.189711,-1.97107 z m 1.410971,-5.43989 c -0.147894,-0.15041 -0.958688,-0.004 -1.802313,0.32557 -1.190493,0.46489 -1.273775,0.76238 -0.372356,1.32926 1.001692,0.63001 2.957562,-0.85824 2.174878,-1.65479 z m 230.867757,-4.04709 c -0.76044,-1.10476 -1.38244,-2.53596 -1.38244,-3.18045 0,-0.78074 -0.70066,-0.99274 -2.09988,-0.63546 -3.29195,0.84084 -3.73458,-1.90321 -0.50452,-3.12879 1.43247,-0.54356 3.81619,-1.4497 5.29712,-2.01368 1.48093,-0.56405 2.87795,-0.8369 3.10441,-0.60643 0.22656,0.23047 0.67548,2.37934 0.99854,4.7753 0.48879,3.62737 0.31257,4.56059 -1.05393,5.57722 -2.21641,1.64934 -2.74799,1.55328 -4.35909,-0.78778 z m 3.19545,-3.95968 c -0.41116,-2.29739 -0.88002,-2.67563 -1.95765,-1.57874 -1.12766,1.14761 -0.0944,4.13576 1.26339,3.65045 0.55067,-0.19685 0.86324,-1.12912 0.69437,-2.07171 z m -234.087542,0.64208 c -4.314724,-1.54558 -5.846317,-3.03413 -4.192214,-4.07451 0.462562,-0.29068 2.531712,0.079 4.59887,0.82098 4.696731,1.68644 4.420663,1.72899 4.436816,-0.68393 0.0074,-1.11842 0.385992,-2.63217 0.840162,-3.36384 1.437403,-2.31324 2.052054,1.12715 0.94715,5.30262 -1.111406,4.20061 -0.770936,4.09794 -6.630994,1.99875 z m 223.630082,-5.92912 c -0.27271,-0.72257 0.13951,-2.23653 0.91569,-3.36435 2.25606,-3.278 1.83294,-4.59761 -1.2529,-3.90784 -4.53279,1.01323 -3.16388,-1.63348 2.2398,-4.33064 2.69723,-1.34625 5.05745,-2.44773 5.24488,-2.44773 0.18776,0 0.96813,1.87468 1.73571,4.16596 1.73948,5.1954 0.70486,7.99719 -2.70772,7.33328 -1.69333,-0.32942 -2.43563,0.0726 -3.17216,1.7175 -1.09116,2.43727 -2.27505,2.76593 -3.00361,0.8338 z m 6.76756,-8.62786 c -0.7017,-1.33442 -1.34856,-1.70037 -1.94066,-1.09784 -0.59157,0.60247 -0.53703,1.57099 0.16468,2.9054 0.70171,1.33442 1.34856,1.70037 1.94066,1.09786 0.59158,-0.60259 0.53703,-1.571 -0.16468,-2.90542 z M 23.674984,122.4053 c -4.288082,-2.47731 -5.49798,-4.07878 -4.131797,-5.46912 0.398579,-0.40542 7.066284,3.13409 9.985562,5.30064 0.166774,0.12383 -0.03147,0.81843 -0.443682,1.5436 -0.623042,1.0997 -1.520894,0.87158 -5.409768,-1.37512 z M 237.8835,119.8261 c -0.71744,-1.18087 -0.94401,-0.97043 4.62016,-4.29225 2.52112,-1.50515 4.81893,-2.49728 5.10643,-2.20474 1.31888,1.34224 0.18985,2.83925 -3.81587,5.0578 -4.90913,2.71918 -5.10454,2.76677 -5.91072,1.43919 z M 25.140287,117.04647 c -2.149181,-1.56201 -4.064353,-2.97563 -4.256091,-3.14141 -1.113609,-0.96284 2.376476,-3.0564 5.095205,-3.0564 h 3.19713 l -2.195752,-1.50788 c -1.207695,-0.82932 -2.345009,-1.6252 -2.527516,-1.76859 -0.182508,-0.14337 -0.0944,-0.89838 0.202436,-1.67773 0.442633,-1.17543 1.359994,-0.85909 5.377358,1.85556 5.562592,3.75873 5.642307,5.38187 0.309423,6.2988 l -3.627805,0.62372 2.365253,1.46061 c 2.499826,1.54362 3.186536,3.75329 1.166473,3.75329 -0.659753,0 -2.957247,-1.278 -5.106323,-2.84002 z m 210.559523,-2.05541 c 0,-0.7042 1.09903,-2.12575 2.44224,-3.1591 l 2.44214,-1.87881 -3.24444,1.32717 c -2.92788,1.19772 -3.29856,1.18362 -3.7994,-0.14464 -0.31886,-0.84468 0.15628,-2.2784 1.11424,-3.36482 2.89358,-3.28171 3.20929,-4.71145 0.4678,-2.11896 -3.10724,2.93857 -3.86296,3.08591 -3.86296,0.75321 0,-0.95272 -0.48984,-1.89847 -1.08875,-2.10161 -0.61465,-0.20859 -0.9975,-1.59271 -0.87793,-3.17915 0.22342,-2.991503 -0.92407,-4.284295 -3.80517,-4.284295 -3.49239,0 -1.68693,-2.558799 3.37534,-4.783749 7.01216,-3.08192 7.79075,-2.130621 4.69578,5.737376 -1.30796,3.324928 -2.17886,6.248078 -1.93531,6.495888 0.24335,0.24786 2.01723,-0.81864 3.94174,-2.36974 1.9244,-1.55118 3.89821,-2.820312 4.38626,-2.820312 2.04094,0 1.89503,3.086402 -0.2832,5.992892 -2.45777,3.2793 -2.13051,3.69669 1.3579,1.7319 1.55896,-0.8781 2.54807,-0.9699 3.33023,-0.30925 1.9566,1.65257 1.21399,3.26835 -3.01127,6.55167 -4.49219,3.49078 -5.64472,3.88368 -5.64472,1.92434 z m -3.56582,-20.608086 c 0.007,-0.357172 -0.56011,-0.425276 -1.26244,-0.151152 -0.70171,0.274017 -1.04575,1.108814 -0.76465,1.85498 0.41641,1.103626 0.65137,1.131817 1.26245,0.151152 0.41326,-0.663 0.7573,-1.497764 0.76464,-1.85498 z M 32.986738,107.59706 c -0.99435,-1.01164 0.419557,-3.07489 2.105967,-3.07489 1.08917,0 1.681165,-0.63663 1.681165,-1.80756 0,-2.32212 -0.723736,-2.27934 -3.312928,0.19566 -2.490071,2.38076 -4.963569,1.41259 -5.38449,-2.10755 -0.252783,-2.111645 2.548075,-6.22219 4.23931,-6.22219 1.919788,0 1.882237,2.183907 -0.06293,3.677326 -1.161963,0.891971 -1.817206,1.922294 -1.456282,2.289644 0.360819,0.36731 1.616028,-0.24979 2.78911,-1.371296 2.831171,-2.706792 5.852715,-1.330216 5.852715,2.666386 0,3.88718 -4.415732,7.82597 -6.451318,5.75444 z m 7.092507,-13.930821 c -2.692822,-3.201603 -3.198388,-3.469088 -4.210884,-2.227577 -0.733176,0.899015 -1.459115,1.096911 -2.000973,0.545472 -0.812891,-0.827496 4.199242,-8.248951 5.571298,-8.248951 1.44443,0 1.669732,1.332329 0.456268,2.697174 -1.189549,1.337773 -1.010083,1.797006 1.774202,4.543604 1.703716,1.680481 3.09759,3.561689 3.09759,4.180463 0,2.518449 -1.795809,1.947507 -4.687186,-1.490164 z M 221.00619,92.706058 c -0.32411,-0.533837 0.25802,-1.888594 1.29349,-3.010474 1.83735,-1.99043 1.84259,-2.076905 0.21817,-3.57341 -1.57585,-1.451362 -1.73875,-1.423192 -3.03728,0.525085 -1.06074,1.591391 -1.61854,1.817255 -2.45766,0.995086 -0.84855,-0.831445 -0.34089,-2.015409 2.32655,-5.4227 1.87658,-2.397496 3.53246,-4.535309 3.67973,-4.750713 0.14684,-0.215413 0.69331,0.04163 1.21398,0.571306 0.6692,0.68136 0.6157,1.501138 -0.18355,2.803663 -0.91988,1.499014 -0.90939,2.110252 0.0524,3.292594 1.08498,1.330333 1.32381,1.323138 2.85383,-0.08646 1.02896,-0.947479 1.9866,-1.215369 2.49521,-0.6978 0.50871,0.517506 -0.5685,2.660614 -2.80537,5.582093 -3.72168,4.860864 -4.62394,5.462987 -5.65122,3.771382 z M 44.363027,86.768404 c -3.09738,-4.128426 -3.969639,-6.648412 -2.301165,-6.648412 1.178116,0 8.004938,9.25656 7.47294,10.132635 -0.874777,1.439898 -2.09338,0.618701 -5.171775,-3.484223 z m 6.036272,-4.385865 c -2.593911,-4.178425 -3.348695,-4.734124 -4.300774,-3.166334 -0.302081,0.497117 -0.925124,0.90382 -1.384539,0.90382 -1.752909,0 -0.714295,-2.475997 2.274314,-5.424409 2.496574,-2.46261 3.328556,-2.842978 4.218332,-1.92857 0.887363,0.911398 0.796109,1.318431 -0.45522,2.036533 -1.438766,0.826215 -1.350659,1.211525 1.110148,4.851417 2.809249,4.155465 3.194612,5.452983 1.867448,6.287749 -0.442632,0.278714 -1.94171,-1.323385 -3.330234,-3.560174 z m 7.471262,-3.421221 c -0.752056,-0.605464 -2.381091,-2.776274 -3.621197,-4.824101 -1.677074,-2.769505 -1.997406,-3.985151 -1.25028,-4.745407 0.746812,-0.760245 1.641517,0.02028 3.491973,3.045487 1.368176,2.237162 2.899034,4.067558 3.401978,4.067558 1.973282,0 1.821193,-2.87481 -0.351379,-6.648219 -2.105547,-3.65649 -2.234455,-5.100957 -0.455219,-5.100957 1.095254,0 5.217821,7.62832 5.217821,9.655 0,1.661941 -1.618861,3.678246 -4.087534,5.090998 -0.539131,0.308176 -1.594107,0.06511 -2.345744,-0.540349 z m 149.831159,0.215093 c -0.31467,-0.518893 0.0629,-1.92809 0.83597,-3.131439 0.77513,-1.203359 1.40866,-4.066277 1.40866,-6.362054 0,-4.842653 2.03863,-5.303434 2.49846,-0.564687 0.29054,2.992561 0.95764,3.507942 2.50381,1.934281 0.9482,-0.965198 3.87839,-0.290669 3.87839,0.892824 0,0.368381 -1.55236,1.382212 -3.4496,2.252908 -1.89734,0.870728 -3.96303,2.55928 -4.59037,3.752401 -1.23119,2.341081 -2.17897,2.717692 -3.08501,1.225776 z m -9.30053,-7.190522 c -4.34451,-4.421454 -0.13741,-13.966548 5.37169,-12.187091 2.00129,0.646454 4.75033,5.45149 3.91027,6.834822 -0.71429,1.176801 -3.06549,-0.69481 -3.06549,-2.440556 0,-1.737293 -4.12466,-1.578327 -4.78935,0.184563 -0.99435,2.636265 -0.55172,5.60213 0.91988,6.177149 1.95734,0.764409 2.58909,-0.03522 1.28836,-1.629851 -1.44255,-1.768911 0.24019,-2.732849 2.56244,-1.467972 2.08289,1.134476 2.05342,1.006828 0.92827,4.018189 -1.07459,2.876432 -4.5567,3.125983 -7.12649,0.510673 z M 67.129765,67.862865 c -1.602393,-3.356523 -2.295606,-4.017282 -3.729233,-3.554228 -3.139755,1.014195 -1.97496,-1.880001 1.772314,-4.403723 1.943283,-1.30876 3.74161,-2.379561 3.996281,-2.379561 1.074171,0 0.352428,2.811221 -0.841212,3.277456 -1.084345,0.423462 -0.934563,1.251939 0.888412,4.9124 2.481365,4.983333 2.69429,6.27068 1.037355,6.27068 -0.635629,0 -2.040831,-1.855363 -3.123393,-4.123024 z m 6.264196,-4.236975 c -0.997497,-2.609674 -2.062018,-5.370459 -2.366301,-6.135091 -0.39858,-1.001813 0.54857,-1.934976 3.389706,-3.33969 3.00193,-1.484293 4.047152,-1.672433 4.38049,-0.788533 0.241245,0.638555 -0.723736,1.859367 -2.143832,2.712951 -2.796872,1.6814 -3.60326,3.878811 -1.026866,2.799607 3.527951,-1.478123 4.662328,-1.537644 4.662328,-0.244661 0,0.723845 -0.991204,1.775625 -2.202675,2.337375 -1.417997,0.657556 -2.019852,1.506145 -1.689556,2.382177 0.454171,1.20447 0.804501,1.20763 3.046614,0.02775 3.107764,-1.635553 3.509804,-1.652044 3.509804,-0.144108 0,0.985907 -5.918586,5.13723 -7.324207,5.13723 -0.231805,0 -1.237798,-2.135188 -2.23498,-4.744862 z m 115.523769,2.766729 c -1.06421,-0.523588 -2.40427,-2.105139 -2.9778,-3.514486 -1.4845,-3.647224 1.21692,-9.298564 4.63694,-9.700494 4.96,-0.582941 7.52475,5.146846 4.74897,10.609565 -1.02897,2.025528 -3.38971,4.001067 -4.32375,3.618596 -0.0839,-0.03416 -1.02057,-0.489537 -2.08436,-1.013234 z m 4.12383,-4.288928 c 1.35538,-2.577234 1.11896,-5.210777 -0.5255,-5.852908 -2.85162,-1.113618 -5.86677,3.813663 -3.84838,6.288752 1.48323,1.818761 3.2824,1.63947 4.37367,-0.435844 z M 178.9629,61.323057 c -1.65505,-0.845963 -2.98682,-1.944914 -2.95955,-2.441997 0.16782,-3.054006 3.32939,-11.297289 4.33318,-11.297289 1.53967,0 1.50453,1.581208 -0.14055,6.326487 -1.66722,4.808932 -1.73277,4.408634 0.88841,5.4227 1.22112,0.472458 2.22019,1.479159 2.22019,2.237088 0,1.714267 -0.56745,1.681966 -4.34126,-0.24701 z M 88.073947,58.65512 c -0.754154,-0.869873 -1.630818,-2.828418 -1.948423,-4.352272 -1.012181,-4.856177 4.305704,-9.453473 8.01742,-6.931182 1.511979,1.027432 3.019133,4.38704 3.019133,6.729966 0,5.231091 -5.926873,8.200671 -9.08813,4.553488 z m 6.03858,-3.305007 c 0.632482,-2.565973 -0.917781,-5.958778 -2.722821,-5.958778 -1.551417,0 -3.012209,2.668373 -2.473813,4.518923 0.217121,0.745621 0.54962,1.864053 0.740518,2.485401 0.626189,2.044027 3.882896,1.279821 4.45643,-1.045578 z m 72.722133,0.860694 c -2.51042,-2.554818 -2.66345,-3.892058 -0.92827,-8.117068 2.94277,-7.167742 11.34304,-3.322225 9.89557,4.530037 -0.54962,2.980126 -3.28052,5.805405 -5.6121,5.805405 -0.64612,0 -2.15579,-0.998289 -3.35467,-2.218374 z m 6.00575,-3.726399 c 1.1585,-2.587513 0.0944,-5.352514 -2.05394,-5.352514 -1.58551,0 -3.63976,4.365945 -2.93449,6.236467 0.84751,2.248831 3.82185,1.721857 4.98843,-0.883964 z m -73.511531,2.619794 c -0.309423,-1.402291 -0.921976,-3.973067 -1.359889,-5.712857 -0.438437,-1.739779 -0.799256,-3.587596 -0.801354,-4.106254 -0.0045,-0.917056 7.188794,-3.334363 7.867424,-2.643726 0.88212,0.898161 -0.91253,3.134854 -2.51618,3.134854 -1.06557,0 -1.80399,0.595002 -1.80399,1.453647 0,1.09927 0.54122,1.315399 2.22019,0.886525 1.68064,-0.429333 2.22008,-0.212958 2.22008,0.890369 0,0.801663 -0.82338,1.676757 -1.83063,1.944722 -1.42933,0.380336 -1.77011,1.08835 -1.55414,3.228566 0.35767,3.5473 -1.69061,4.322757 -2.440986,0.924101 z M 159.2904,53.232431 c -2.06695,-5.837024 -2.50434,-6.298871 -2.56801,-2.71135 -0.0419,2.493417 -0.43948,3.389188 -1.49561,3.389188 -1.242,0 -1.35129,-0.822586 -0.8108,-6.100538 0.90939,-8.878283 2.57713,-9.536512 5.1509,-2.033512 1.14802,3.346563 1.40762,3.639838 1.46531,1.655535 0.10489,-3.441301 0.94925,-5.270672 2.44507,-5.270672 0.81499,0 1.12934,0.587744 0.84541,1.581624 -0.24859,0.869874 -0.72059,3.920153 -1.05026,6.778375 -0.66395,5.760787 -2.46794,6.988815 -3.98275,2.71135 z m -44.88726,-4.794606 c -0.44682,-4.020014 -0.92197,-5.349782 -1.79171,-5.010276 -1.41895,0.554119 -2.64993,-1.126672 -1.56254,-2.133437 0.42165,-0.390264 2.46469,-0.969682 4.54055,-1.287614 2.91875,-0.447052 3.77423,-0.290349 3.77423,0.6915 0,0.698334 -0.61989,1.511717 -1.3774,1.807564 -1.13071,0.441609 -1.26916,1.510862 -0.77304,5.97129 0.51186,4.608163 0.39124,5.433385 -0.79821,5.433385 -1.05686,0 -1.55278,-1.349462 -2.01114,-5.472444 z m 7.31183,1.846824 c -0.31676,-1.609741 -0.57479,-4.663415 -0.57479,-6.785932 V 39.63959 l 3.77434,-0.411719 c 4.13326,-0.450896 6.39132,0.65019 4.21088,2.053186 -0.72898,0.468829 -2.22386,0.858558 -3.32289,0.866137 -3.0935,0.02135 -2.35718,1.671654 0.88841,1.990099 3.36149,0.329845 3.53257,1.959068 0.24964,2.376744 -1.52174,0.193637 -2.24778,0.843187 -2.24778,2.010924 0,1.418431 0.45417,1.632479 2.55647,1.204588 1.51648,-0.30871 2.81711,-0.09074 3.19713,0.534584 0.92931,1.52998 0.1374,1.996012 -4.24645,2.498861 -3.81901,0.438086 -3.92233,0.380977 -4.48422,-2.47842 z m 13.63382,2.094625 c -2.27148,-0.826215 -3.55228,-3.196639 -3.55228,-6.574704 0,-6.362417 4.87158,-9.460135 8.48565,-5.395874 1.37803,1.549654 1.44715,1.994421 0.41116,2.646224 -0.81709,0.514302 -1.60061,0.289495 -2.27851,-0.653927 -1.71599,-2.38839 -3.9538,-0.733878 -3.9538,2.923305 0,3.43415 1.96688,5.138222 3.78955,3.283253 1.24398,-1.266019 3.31502,-1.340987 3.31502,-0.119982 0,1.089653 -3.2802,4.548065 -4.21833,4.447564 -0.36606,-0.0395 -1.26549,-0.289389 -1.99814,-0.555827 z m 7.68545,-0.05124 c -0.22656,-0.373077 -0.19509,-3.423368 0.0734,-6.778375 0.32726,-4.142826 0.85065,-6.100015 1.63271,-6.100015 0.63353,0 1.27797,1.114952 1.43247,2.477673 0.39438,3.480146 3.16766,3.881436 3.54715,0.513341 0.2769,-2.458703 3.05143,-3.825181 2.86148,-1.409378 -0.0524,0.621368 -0.14894,3.56994 -0.22237,6.552425 -0.11328,4.599335 -0.37969,5.4227 -1.75553,5.4227 -1.29748,0 -1.54407,-0.543017 -1.23129,-2.71135 0.32306,-2.237014 0.0839,-2.71135 -1.37489,-2.71135 -1.25175,0 -1.92115,0.789493 -2.29875,2.71135 -0.50452,2.566624 -1.75574,3.522822 -2.66052,2.032989 z"
       id="path892"
       inkscape:connector-curvature="0" />
  </g>
</svg>
