<?xml version="1.0" encoding="UTF-8" standalone="no"?>
<!-- Created with Inkscape (http://www.inkscape.org/) -->

<svg
   xmlns:dc="http://purl.org/dc/elements/1.1/"
   xmlns:cc="http://creativecommons.org/ns#"
   xmlns:rdf="http://www.w3.org/1999/02/22-rdf-syntax-ns#"
   xmlns:svg="http://www.w3.org/2000/svg"
   xmlns="http://www.w3.org/2000/svg"
   xmlns:sodipodi="http://sodipodi.sourceforge.net/DTD/sodipodi-0.dtd"
   xmlns:inkscape="http://www.inkscape.org/namespaces/inkscape"
   width="210mm"
   height="297mm"
   viewBox="0 0 210 297"
   version="1.1"
   id="svg2780"
   inkscape:version="0.92.4 5da689c313, 2019-01-14"
   sodipodi:docname="top.svg">
  <defs
     id="defs2774" />
  <sodipodi:namedview
     id="base"
     pagecolor="#ffffff"
     bordercolor="#666666"
     borderopacity="1.0"
     inkscape:pageopacity="0.0"
     inkscape:pageshadow="2"
     inkscape:zoom="0.38207093"
     inkscape:cx="396.85039"
     inkscape:cy="816.64993"
     inkscape:document-units="mm"
     inkscape:current-layer="layer1"
     showgrid="false"
     inkscape:snap-page="true"
     inkscape:snap-center="true"
     showguides="true"
     inkscape:guide-bbox="true"
     inkscape:window-width="1855"
     inkscape:window-height="1052"
     inkscape:window-x="65"
     inkscape:window-y="0"
     inkscape:window-maximized="1"
     inkscape:pagecheckerboard="true">
    <sodipodi:guide
       position="76.369495,228.12256"
       orientation="1,0"
       id="guide824"
       inkscape:locked="false" />
    <sodipodi:guide
       position="83.416095,254.92867"
       orientation="0.70710678,0.70710678"
       id="guide828"
       inkscape:locked="false" />
  </sodipodi:namedview>
  <metadata
     id="metadata2777">
    <rdf:RDF>
      <cc:Work
         rdf:about="">
        <dc:format>image/svg+xml</dc:format>
        <dc:type
           rdf:resource="http://purl.org/dc/dcmitype/StillImage" />
        <dc:title></dc:title>
      </cc:Work>
    </rdf:RDF>
  </metadata>
  <g
     inkscape:label="Layer 1"
     inkscape:groupmode="layer"
     id="layer1">
    <g
       id="g833"
       style="fill:#ffffff;fill-opacity:1"
       inkscape:export-xdpi="96"
       inkscape:export-ydpi="96">
      <path
         id="rect3344"
         transform="scale(0.26458333)"
         d="M 315.27344 159.00977 L 176.94727 297.33398 L 176.94727 372.01562 L 288.64062 260.32422 L 288.64062 500.64648 C 287.31744 507.40009 286.6543 514.43089 286.6543 521.74023 C 286.6543 541.15237 291.31959 558.6053 300.65234 574.09766 C 310.17175 589.59002 323.14467 601.72135 339.57031 610.49414 C 356.18261 619.26693 374.84769 623.6543 395.56641 623.6543 C 416.28512 623.6543 434.85758 619.26693 451.2832 610.49414 C 467.89551 601.72135 480.86841 589.59002 490.20117 574.09766 C 499.72057 558.6053 504.48047 541.15237 504.48047 521.74023 C 504.48047 502.3281 499.72057 484.87517 490.20117 469.38281 C 480.86841 453.89043 467.89551 441.75912 451.2832 432.98633 C 434.85758 424.21354 416.28512 419.82617 395.56641 419.82617 C 375.81229 419.82617 357.92937 423.8239 341.9082 431.79883 L 341.9082 260.32617 L 453.59961 372.01562 L 453.59961 297.33398 L 315.27344 159.00977 z M 395.56641 465.74414 C 405.45912 465.74414 414.41913 468.07581 422.44531 472.74219 C 430.47147 477.40857 436.81799 484.03496 441.48438 492.62109 C 446.15076 501.02056 448.48437 510.72757 448.48438 521.74023 C 448.48438 532.75287 446.15076 542.55254 441.48438 551.13867 C 436.81799 559.53817 430.47147 566.06995 422.44531 570.73633 C 414.41913 575.40268 405.45912 577.73633 395.56641 577.73633 C 385.67367 577.73633 376.71365 575.40268 368.6875 570.73633 C 360.66133 566.06995 354.31677 559.53817 349.65039 551.13867 C 344.98401 542.55254 342.65039 532.75287 342.65039 521.74023 C 342.65039 510.72757 344.98401 501.02056 349.65039 492.62109 C 354.31677 484.03496 360.66133 477.40857 368.6875 472.74219 C 376.71365 468.07581 385.67367 465.74414 395.56641 465.74414 z "
         style="opacity:1;vector-effect:none;fill:#ffffff;fill-opacity:1;fill-rule:nonzero;stroke:none;stroke-width:0.4824729;stroke-linecap:butt;stroke-linejoin:miter;stroke-miterlimit:4;stroke-dasharray:none;stroke-dashoffset:0;stroke-opacity:1;paint-order:markers stroke fill" />
      <path
         d="m 102.21577,172.11991 q 7.03748,0 12.22299,2.37052 5.18551,2.29644 8.0005,6.66709 2.81499,4.29656 2.81499,10.14878 0,5.85222 -2.81499,10.14879 -2.81499,4.29657 -8.0005,6.66708 -5.18551,2.29644 -12.22299,2.29644 h -9.037605 v 13.55641 H 78.510577 v -51.85511 z m -0.88895,26.74242 q 4.51881,0 6.81525,-1.92604 2.29644,-2.00013 2.29644,-5.62999 0,-3.62985 -2.29644,-5.62998 -2.29644,-2.00013 -6.81525,-2.00013 h -8.148655 v 15.18614 z"
         style="font-style:normal;font-variant:normal;font-weight:800;font-stretch:normal;font-size:74.07872772px;line-height:0.81;font-family:Montserrat;-inkscape-font-specification:'Montserrat, Ultra-Bold';font-variant-ligatures:normal;font-variant-caps:normal;font-variant-numeric:normal;font-feature-settings:normal;text-align:start;letter-spacing:0px;word-spacing:0px;writing-mode:lr-tb;text-anchor:start;fill:#ffffff;fill-opacity:1;stroke:none;stroke-width:0.86810756"
         id="path820"
         inkscape:connector-curvature="0" />
    </g>
    <text
       xml:space="preserve"
       style="font-style:normal;font-variant:normal;font-weight:normal;font-stretch:normal;font-size:6.3499999px;line-height:1.25;font-family:AnjaliOldLipi;-inkscape-font-specification:'AnjaliOldLipi, Normal';font-variant-ligatures:normal;font-variant-caps:normal;font-variant-numeric:normal;font-feature-settings:normal;text-align:start;letter-spacing:0px;word-spacing:0px;writing-mode:lr-tb;text-anchor:start;fill:#000000;fill-opacity:1;stroke:none;stroke-width:0.26458332"
       x="165.70709"
       y="160.158"
       id="text3385"><tspan
         sodipodi:role="line"
         id="tspan3383"
         x="165.70709"
         y="164.75063"
         style="stroke-width:0.26458332" /></text>
  </g>
</svg>
